<svg id="svg" version="1.1" xmlns="http://www.w3.org/2000/svg" xmlns:xlink="http://www.w3.org/1999/xlink" width="400" height="400" viewBox="0, 0, 400,400"><g id="svgg"><path id="path0" d="M136.376 85.675 C 134.497 86.349,133.038 87.850,132.499 89.667 C 132.014 91.299,132.050 177.491,132.537 178.996 C 133.423 181.742,135.545 183.039,139.350 183.161 L 142.000 183.246 142.000 181.423 L 142.000 179.600 139.947 179.600 C 137.572 179.600,136.760 179.297,136.165 178.188 C 135.815 177.535,135.800 175.925,135.800 139.453 L 135.800 101.400 200.000 101.400 L 264.200 101.400 264.200 139.453 C 264.200 175.925,264.185 177.535,263.835 178.188 C 263.170 179.426,262.545 179.600,258.753 179.600 L 255.400 179.600 255.400 162.900 L 255.400 146.200 235.700 146.200 L 216.000 146.200 216.000 162.900 L 216.000 179.600 214.700 179.600 L 213.400 179.600 213.400 144.400 L 213.400 109.200 179.000 109.200 L 144.600 109.200 144.600 114.022 C 144.600 118.635,144.615 118.827,144.950 118.442 C 145.509 117.798,146.972 116.838,147.604 116.699 L 148.185 116.571 148.243 114.736 L 148.300 112.900 179.050 112.849 L 209.800 112.799 209.800 146.199 L 209.800 179.600 202.300 179.600 L 194.800 179.600 194.800 181.403 L 194.800 183.206 229.050 183.153 L 263.300 183.100 264.300 182.567 C 265.499 181.929,266.587 180.826,267.229 179.600 L 267.700 178.700 267.752 134.707 C 267.809 85.781,267.915 89.540,266.434 87.667 C 266.005 87.124,265.193 86.437,264.584 86.100 L 263.500 85.500 200.300 85.458 C 148.965 85.424,136.964 85.465,136.376 85.675 M262.962 89.405 C 264.031 90.057,264.200 90.751,264.200 94.494 L 264.200 97.800 200.000 97.800 L 135.800 97.800 135.800 94.494 C 135.800 90.751,135.969 90.057,137.038 89.405 C 138.084 88.767,261.916 88.767,262.962 89.405 M140.871 91.585 C 140.042 92.090,139.681 93.133,139.999 94.097 C 140.670 96.131,143.614 96.129,144.176 94.093 C 144.738 92.059,142.668 90.489,140.871 91.585 M146.995 91.541 C 145.959 92.254,145.637 93.223,146.081 94.286 C 146.884 96.207,149.615 96.030,150.218 94.018 C 150.782 92.137,148.582 90.446,146.995 91.541 M153.300 91.391 C 151.875 91.980,151.491 93.922,152.585 95.015 C 153.688 96.119,155.583 95.690,156.201 94.196 C 156.915 92.473,155.048 90.668,153.300 91.391 M167.404 91.857 C 166.350 92.390,166.126 93.644,166.918 94.585 L 167.436 95.200 210.827 95.200 L 254.218 95.200 254.709 94.709 C 255.418 94.000,255.379 92.949,254.615 92.185 L 254.031 91.600 210.965 91.603 C 176.824 91.605,167.797 91.658,167.404 91.857 M216.000 126.900 L 216.000 144.600 235.700 144.600 L 255.400 144.600 255.400 126.900 L 255.400 109.200 235.700 109.200 L 216.000 109.200 216.000 126.900 M251.700 126.900 L 251.700 140.900 235.650 140.951 L 219.600 141.002 219.600 126.900 L 219.600 112.798 235.650 112.849 L 251.700 112.900 251.700 126.900 M148.666 119.017 C 147.341 119.528,146.103 120.734,145.430 122.169 L 144.900 123.300 144.900 162.800 C 144.900 201.170,144.911 202.328,145.281 203.288 C 145.765 204.542,146.997 205.884,148.292 206.568 L 149.300 207.100 168.400 207.100 L 187.500 207.100 188.513 206.566 C 189.723 205.927,190.886 204.692,191.473 203.424 L 191.900 202.500 191.900 162.900 L 191.900 123.300 191.378 122.187 C 190.760 120.870,189.705 119.786,188.425 119.156 L 187.500 118.700 168.600 118.659 C 150.139 118.619,149.676 118.627,148.666 119.017 M187.092 122.595 C 188.077 123.204,188.267 123.814,188.358 126.650 L 188.440 129.200 168.400 129.200 L 148.361 129.200 148.432 126.550 C 148.510 123.669,148.705 123.083,149.779 122.499 C 150.733 121.980,186.245 122.072,187.092 122.595 M165.636 126.050 C 165.699 126.491,165.752 126.500,168.400 126.500 C 171.048 126.500,171.101 126.491,171.164 126.050 C 171.228 125.602,171.218 125.600,168.400 125.600 C 165.582 125.600,165.572 125.602,165.636 126.050 M188.351 161.950 L 188.401 191.000 186.601 191.000 L 184.800 191.000 184.800 180.099 L 184.800 169.198 168.350 169.249 L 151.900 169.300 151.848 180.150 L 151.797 191.000 150.098 191.000 L 148.400 191.000 148.400 162.033 C 148.400 146.102,148.460 133.006,148.534 132.932 C 148.608 132.859,157.586 132.821,168.484 132.849 L 188.300 132.900 188.351 161.950 M151.800 152.700 L 151.800 166.800 168.300 166.800 L 184.800 166.800 184.800 152.700 L 184.800 138.600 168.300 138.600 L 151.800 138.600 151.800 152.700 M181.200 152.700 L 181.200 163.200 168.400 163.200 L 155.600 163.200 155.600 152.700 L 155.600 142.200 168.400 142.200 L 181.200 142.200 181.200 152.700 M251.700 164.700 L 251.700 179.500 235.650 179.551 L 219.600 179.602 219.600 164.835 C 219.600 156.712,219.661 150.006,219.735 149.932 C 219.809 149.858,227.031 149.821,235.785 149.849 L 251.700 149.900 251.700 164.700 M181.200 181.800 L 181.200 190.600 168.400 190.600 L 155.600 190.600 155.600 181.800 L 155.600 173.000 168.400 173.000 L 181.200 173.000 181.200 181.800 M188.355 197.759 C 188.418 201.236,188.261 202.075,187.390 202.910 L 186.774 203.500 168.403 203.500 L 150.032 203.500 149.490 203.000 C 148.539 202.122,148.400 201.489,148.400 198.040 C 148.400 196.295,148.460 194.806,148.534 194.732 C 148.608 194.659,157.586 194.621,168.484 194.649 L 188.300 194.700 188.355 197.759 M166.860 196.992 C 165.055 198.092,165.215 200.992,167.131 201.902 C 169.590 203.068,171.983 200.661,170.912 198.098 C 170.333 196.712,168.250 196.144,166.860 196.992 M221.082 223.283 C 215.699 224.515,212.195 229.879,212.202 236.876 C 212.208 243.366,214.203 246.494,221.457 251.382 C 228.265 255.969,229.413 257.588,229.410 262.600 C 229.406 271.781,222.057 274.557,215.448 267.875 C 213.176 265.578,213.104 265.545,212.129 266.401 C 210.522 267.813,210.397 269.225,211.724 270.990 C 216.440 277.263,225.689 278.337,230.800 273.205 C 236.763 267.218,236.230 255.281,229.754 249.756 C 229.174 249.261,226.990 247.731,224.900 246.354 C 218.658 242.242,217.009 239.539,217.768 234.660 C 218.837 227.781,225.300 225.842,230.517 230.835 C 231.911 232.170,231.954 232.182,232.793 231.475 C 237.265 227.713,228.503 221.584,221.082 223.283 M90.405 223.991 C 90.033 224.686,90.224 275.567,90.600 275.804 C 91.127 276.137,109.704 276.057,109.983 275.720 C 110.134 275.539,110.195 274.752,110.157 273.470 L 110.100 271.500 103.050 271.447 L 96.000 271.395 96.003 261.947 C 96.004 256.751,96.060 252.298,96.126 252.050 L 96.247 251.600 101.799 251.600 C 108.361 251.600,107.836 251.832,107.757 248.971 L 107.700 246.900 101.973 246.847 L 96.245 246.794 96.125 246.347 C 95.968 245.759,95.964 228.926,96.121 228.516 C 96.229 228.236,97.025 228.200,103.026 228.200 L 109.810 228.200 110.005 227.687 C 110.263 227.008,110.255 224.476,109.993 223.987 C 109.667 223.378,90.731 223.382,90.405 223.991 M196.412 224.067 C 196.315 224.325,196.087 227.677,195.906 231.517 C 195.514 239.854,195.633 239.400,193.844 239.400 C 192.081 239.400,192.000 239.496,192.000 241.600 C 192.000 243.698,192.084 243.800,193.816 243.800 C 195.718 243.800,195.568 242.751,195.654 256.607 C 195.722 267.665,195.766 269.040,196.092 270.296 C 197.257 274.791,198.685 275.842,203.789 275.964 C 207.461 276.051,207.400 276.087,207.400 273.876 C 207.400 271.902,207.277 271.800,204.895 271.800 C 200.540 271.800,200.500 271.655,200.500 255.800 L 200.500 243.900 203.187 243.844 C 206.460 243.776,206.400 243.816,206.400 241.692 C 206.400 239.250,206.589 239.400,203.519 239.400 C 201.733 239.400,200.802 239.322,200.640 239.160 C 200.462 238.982,200.400 237.037,200.400 231.647 C 200.400 227.016,200.325 224.233,200.193 223.987 C 199.849 223.343,196.662 223.411,196.412 224.067 M298.800 223.999 C 298.682 224.221,298.427 227.634,298.229 231.661 C 297.815 240.065,297.997 239.400,296.110 239.400 C 294.372 239.400,294.400 239.363,294.400 241.676 C 294.400 243.696,294.491 243.800,296.245 243.800 C 298.116 243.800,297.999 242.967,298.007 256.363 C 298.015 270.267,298.213 271.885,300.161 274.042 C 301.546 275.574,302.465 275.874,306.000 275.950 C 309.767 276.031,309.675 276.078,309.768 274.042 C 309.865 271.900,309.754 271.800,307.276 271.800 C 302.905 271.800,302.766 271.278,302.845 255.100 L 302.900 243.900 305.600 243.846 C 308.817 243.783,308.800 243.794,308.800 241.649 C 308.800 239.366,308.845 239.400,305.833 239.400 C 304.114 239.400,303.202 239.322,303.040 239.160 C 302.862 238.982,302.800 237.065,302.800 231.773 C 302.800 227.613,302.718 224.412,302.605 224.113 C 302.336 223.405,299.169 223.311,298.800 223.999 M148.174 238.991 C 142.538 240.020,139.950 245.790,139.918 257.400 C 139.884 269.501,142.616 275.205,148.934 276.222 C 154.738 277.157,158.800 273.331,158.800 266.930 C 158.800 264.906,158.709 264.800,156.967 264.800 C 155.395 264.800,155.325 264.871,155.124 266.668 C 154.711 270.342,153.230 272.220,150.728 272.242 C 147.291 272.273,145.382 268.683,144.886 261.251 C 144.691 258.347,144.020 258.600,151.917 258.600 L 158.586 258.600 158.843 258.150 C 159.492 257.011,158.901 249.354,157.898 245.904 C 156.356 240.604,152.879 238.132,148.174 238.991 M176.670 239.032 C 173.715 239.366,171.568 241.328,170.398 244.763 C 169.661 246.929,169.582 246.814,169.110 242.891 C 168.711 239.563,168.635 239.400,167.500 239.400 C 166.707 239.400,166.565 239.466,166.395 239.913 C 166.029 240.876,166.140 275.026,166.511 275.555 C 166.850 276.039,169.931 276.227,170.600 275.804 C 170.859 275.641,170.915 273.931,171.011 263.157 C 171.134 249.401,171.133 249.408,172.523 246.469 C 174.324 242.662,177.884 241.759,179.312 244.748 C 180.246 246.703,180.262 246.946,180.384 261.520 C 180.480 272.950,180.548 275.397,180.780 275.676 C 181.282 276.281,184.807 276.058,185.151 275.400 C 185.568 274.602,185.383 249.805,184.940 247.200 C 183.822 240.625,181.641 238.471,176.670 239.032 M251.160 239.025 C 248.457 239.425,246.158 241.798,244.886 245.500 C 243.997 248.090,244.042 248.149,243.390 243.525 C 243.160 241.888,242.897 240.355,242.806 240.117 C 242.415 239.087,241.308 238.907,240.858 239.800 C 240.518 240.475,240.481 287.798,240.820 288.770 L 241.039 289.400 243.025 289.400 C 245.605 289.400,245.400 290.263,245.400 279.399 C 245.400 271.044,245.505 269.252,245.920 270.537 C 248.959 279.960,258.167 277.521,260.404 266.700 C 263.470 251.870,258.801 237.892,251.160 239.025 M276.300 239.021 C 269.629 239.598,266.394 247.650,267.389 261.200 C 268.144 271.483,270.769 275.719,276.752 276.309 C 284.587 277.081,288.061 271.379,288.089 257.700 C 288.119 243.335,284.925 238.275,276.300 239.021 M115.324 239.710 C 115.080 240.344,115.239 241.261,118.397 257.481 C 122.450 278.301,121.681 276.000,124.586 276.000 C 126.760 276.000,127.239 275.800,127.581 274.749 C 128.008 273.434,134.050 241.663,134.075 240.600 L 134.100 239.500 132.259 239.443 C 129.770 239.365,130.183 238.107,127.428 254.169 C 125.254 266.851,124.948 268.435,124.726 268.183 C 124.686 268.137,123.610 261.911,122.335 254.346 C 121.061 246.781,119.900 240.346,119.757 240.046 C 119.429 239.360,115.570 239.068,115.324 239.710 M151.697 243.382 C 153.398 244.342,154.493 247.821,154.740 253.050 L 154.860 255.600 149.950 255.600 L 145.040 255.600 144.959 254.650 C 144.739 252.101,145.553 247.470,146.575 245.453 C 147.790 243.057,149.730 242.272,151.697 243.382 M252.313 243.408 C 254.841 244.970,255.886 249.142,255.894 257.700 C 255.904 267.930,254.413 272.267,250.885 272.267 C 248.030 272.267,246.114 268.101,245.581 260.734 C 244.767 249.498,248.136 240.827,252.313 243.408 M279.471 243.275 C 282.054 244.354,282.890 247.805,282.896 257.400 C 282.903 268.221,281.914 271.583,278.542 272.214 C 274.790 272.917,273.096 270.003,272.581 261.965 C 271.685 247.964,274.222 241.082,279.471 243.275 M174.200 309.000 L 174.200 312.800 174.800 312.800 L 175.400 312.800 175.400 309.000 L 175.400 305.200 174.800 305.200 L 174.200 305.200 174.200 309.000 M223.900 309.000 L 223.900 312.800 224.433 312.800 C 224.727 312.800,224.998 312.705,225.037 312.588 C 225.083 312.451,225.319 312.486,225.704 312.687 C 227.347 313.544,229.000 312.397,229.000 310.400 C 229.000 308.411,227.384 307.482,225.350 308.302 C 225.034 308.429,225.000 308.286,225.000 306.821 L 225.000 305.200 224.450 305.200 L 223.900 305.200 223.900 309.000 M233.947 305.338 C 233.473 305.462,233.000 306.424,233.000 307.267 C 233.000 307.785,232.902 307.979,232.600 308.058 C 232.380 308.115,232.200 308.314,232.200 308.500 C 232.200 308.686,232.380 308.885,232.600 308.942 C 232.964 309.037,233.000 309.215,233.000 310.923 L 233.000 312.800 233.600 312.800 L 234.200 312.800 234.200 310.900 L 234.200 309.000 234.714 309.000 C 235.406 309.000,235.339 308.134,234.639 308.035 C 233.985 307.942,234.065 306.534,234.730 306.439 C 235.098 306.386,235.387 305.914,235.397 305.350 C 235.400 305.191,234.539 305.184,233.947 305.338 M255.600 309.000 L 255.600 312.800 256.200 312.800 L 256.800 312.800 256.800 309.000 L 256.800 305.200 256.200 305.200 L 255.600 305.200 255.600 309.000 M263.600 308.987 L 263.600 312.800 264.200 312.800 C 264.530 312.800,264.800 312.711,264.800 312.603 C 264.800 312.495,265.105 312.552,265.478 312.730 C 267.352 313.624,269.192 311.800,268.607 309.627 C 268.220 308.190,266.691 307.593,265.159 308.283 C 264.855 308.419,264.811 308.262,264.759 306.868 C 264.701 305.323,264.692 305.299,264.150 305.237 L 263.600 305.173 263.600 308.987 M275.800 309.000 L 275.800 312.800 276.400 312.800 L 277.000 312.800 277.000 309.000 L 277.000 305.200 276.400 305.200 L 275.800 305.200 275.800 309.000 M90.380 305.543 C 90.370 305.630,90.347 307.297,90.330 309.250 L 90.300 312.800 92.650 312.800 L 95.000 312.800 95.000 312.200 L 95.000 311.600 93.300 311.600 L 91.600 311.600 91.600 310.609 L 91.600 309.618 93.050 309.559 C 94.347 309.506,94.500 309.458,94.500 309.100 C 94.500 308.742,94.347 308.694,93.050 308.641 L 91.600 308.582 91.600 307.599 L 91.600 306.616 93.250 306.558 C 94.861 306.501,94.900 306.488,94.900 306.000 L 94.900 305.500 92.650 305.443 C 91.413 305.412,90.391 305.457,90.380 305.543 M117.355 305.712 C 115.873 306.516,116.101 308.333,117.792 309.196 C 119.904 310.274,119.702 311.944,117.481 311.767 C 116.064 311.655,115.889 312.678,117.289 312.888 C 120.594 313.383,121.912 310.409,119.101 308.801 C 117.285 307.761,117.399 306.469,119.301 306.552 C 120.125 306.588,120.200 306.552,120.200 306.117 C 120.200 305.352,118.471 305.106,117.355 305.712 M142.942 307.739 C 143.909 309.744,144.092 310.304,144.157 311.450 C 144.232 312.791,144.237 312.800,144.816 312.800 C 145.391 312.800,145.400 312.782,145.400 311.697 C 145.400 310.748,145.568 310.259,146.600 308.200 C 148.015 305.376,148.019 305.357,147.068 305.438 C 146.354 305.498,146.319 305.541,145.645 307.160 C 144.853 309.060,144.908 309.065,144.068 307.035 C 143.434 305.503,143.431 305.500,142.619 305.439 L 141.804 305.377 142.942 307.739 M166.972 305.550 C 166.816 306.377,167.096 311.199,167.326 311.647 C 168.181 313.311,171.469 313.292,172.458 311.616 C 172.694 311.217,172.783 310.402,172.819 308.294 L 172.866 305.500 172.233 305.437 L 171.600 305.375 171.600 308.000 C 171.600 310.921,171.496 311.271,170.540 311.587 C 168.721 312.187,168.200 311.392,168.200 308.013 L 168.200 305.400 167.600 305.400 C 167.270 305.400,166.987 305.468,166.972 305.550 M210.100 309.100 L 210.100 312.800 210.750 312.800 L 211.400 312.800 211.400 311.300 L 211.400 309.800 213.300 309.800 L 215.200 309.800 215.200 311.300 L 215.200 312.800 215.850 312.800 L 216.500 312.800 216.459 309.150 L 216.419 305.500 215.809 305.437 L 215.200 305.375 215.200 306.987 L 215.200 308.600 213.300 308.600 L 211.400 308.600 211.400 307.000 L 211.400 305.400 210.750 305.400 L 210.100 305.400 210.100 309.100 M250.096 305.668 C 245.641 307.686,248.541 314.209,253.206 312.663 L 254.300 312.300 254.358 310.750 L 254.417 309.200 253.108 309.200 C 251.933 309.200,251.800 309.241,251.800 309.600 C 251.800 309.925,251.933 310.000,252.512 310.000 C 253.213 310.000,253.223 310.012,253.162 310.750 L 253.100 311.500 251.844 311.560 C 250.687 311.615,250.543 311.574,250.009 311.040 C 247.947 308.978,250.303 305.737,253.093 306.797 C 253.716 307.034,254.293 306.213,253.828 305.748 C 253.474 305.394,250.826 305.338,250.096 305.668 M281.200 309.100 L 281.200 312.800 283.500 312.800 L 285.800 312.800 285.800 312.200 L 285.800 311.600 284.100 311.600 L 282.400 311.600 282.400 310.600 L 282.400 309.600 283.900 309.600 C 285.367 309.600,285.400 309.589,285.400 309.100 C 285.400 308.611,285.367 308.600,283.900 308.600 L 282.400 308.600 282.400 307.600 L 282.400 306.600 284.100 306.600 L 285.800 306.600 285.800 306.000 L 285.800 305.400 283.500 305.400 L 281.200 305.400 281.200 309.100 M180.429 305.865 C 180.056 306.315,180.370 306.831,180.976 306.761 C 181.385 306.713,181.500 306.591,181.500 306.200 C 181.500 305.618,180.813 305.403,180.429 305.865 M113.200 307.000 C 113.200 307.756,113.127 308.000,112.900 308.000 C 112.713 308.000,112.600 308.189,112.600 308.500 C 112.600 308.811,112.713 309.000,112.900 309.000 C 113.146 309.000,113.200 309.344,113.200 310.900 L 113.200 312.800 113.792 312.800 L 114.385 312.800 114.442 310.950 L 114.500 309.100 115.050 309.037 C 115.895 308.939,115.850 308.000,115.000 308.000 C 114.413 308.000,114.400 307.978,114.400 307.000 C 114.400 306.022,114.387 306.000,113.800 306.000 C 113.213 306.000,113.200 306.022,113.200 307.000 M134.000 307.000 C 134.000 307.756,133.927 308.000,133.700 308.000 C 133.513 308.000,133.400 308.189,133.400 308.500 C 133.400 308.811,133.513 309.000,133.700 309.000 C 133.946 309.000,134.000 309.344,134.000 310.900 L 134.000 312.800 134.592 312.800 L 135.185 312.800 135.242 310.950 L 135.300 309.100 135.862 309.036 C 136.648 308.945,136.556 308.129,135.750 308.037 C 135.233 307.977,135.200 307.914,135.200 306.987 C 135.200 306.024,135.186 306.000,134.600 306.000 C 134.013 306.000,134.000 306.022,134.000 307.000 M177.000 307.000 C 177.000 307.756,176.927 308.000,176.700 308.000 C 176.513 308.000,176.400 308.189,176.400 308.500 C 176.400 308.811,176.513 309.000,176.700 309.000 C 176.946 309.000,177.000 309.344,177.000 310.900 L 177.000 312.800 177.592 312.800 L 178.185 312.800 178.242 310.950 L 178.300 309.100 178.850 309.037 C 179.695 308.939,179.650 308.000,178.800 308.000 C 178.213 308.000,178.200 307.978,178.200 307.000 C 178.200 306.022,178.187 306.000,177.600 306.000 C 177.013 306.000,177.000 306.022,177.000 307.000 M198.600 307.000 C 198.600 307.756,198.527 308.000,198.300 308.000 C 198.113 308.000,198.000 308.189,198.000 308.500 C 198.000 308.811,198.113 309.000,198.300 309.000 C 198.546 309.000,198.600 309.344,198.600 310.900 L 198.600 312.800 199.192 312.800 L 199.785 312.800 199.842 310.950 L 199.900 309.100 200.462 309.036 C 201.248 308.945,201.156 308.129,200.350 308.037 C 199.833 307.977,199.800 307.914,199.800 306.987 C 199.800 306.024,199.786 306.000,199.200 306.000 C 198.613 306.000,198.600 306.022,198.600 307.000 M304.063 307.000 C 304.169 307.899,304.142 308.000,303.791 308.000 C 303.259 308.000,303.247 308.913,303.776 309.052 C 304.120 309.142,304.144 309.308,304.049 310.975 L 303.945 312.800 304.565 312.800 L 305.185 312.800 305.242 310.950 L 305.300 309.100 305.850 309.037 C 306.695 308.939,306.650 308.000,305.800 308.000 C 305.213 308.000,305.200 307.978,305.200 307.000 C 305.200 306.012,305.192 306.000,304.572 306.000 L 303.944 306.000 304.063 307.000 M95.804 308.150 C 95.806 308.233,96.379 309.368,97.076 310.673 L 98.345 313.046 99.581 310.620 C 100.565 308.690,100.757 308.171,100.521 308.080 C 99.867 307.829,99.519 308.123,99.014 309.349 C 98.383 310.882,98.426 310.884,97.645 309.300 C 97.062 308.117,95.782 307.318,95.804 308.150 M102.476 308.382 C 100.980 309.294,101.114 311.934,102.696 312.685 C 104.010 313.308,106.239 312.819,105.802 312.003 C 105.628 311.679,105.506 311.636,105.205 311.797 C 104.580 312.132,103.496 312.038,103.114 311.616 C 102.703 311.162,102.721 311.149,104.750 310.408 C 106.110 309.911,106.144 309.860,105.698 308.996 C 105.150 307.937,103.669 307.654,102.476 308.382 M107.000 310.400 L 107.000 312.800 107.600 312.800 L 108.200 312.800 108.200 311.427 C 108.200 309.886,108.665 309.000,109.475 309.000 C 110.237 309.000,110.400 309.376,110.400 311.140 L 110.400 312.800 111.000 312.800 L 111.600 312.800 111.600 310.927 C 111.600 308.160,110.388 307.108,108.715 308.424 L 108.175 308.849 108.064 308.424 C 107.990 308.142,107.794 308.000,107.477 308.000 C 107.001 308.000,107.000 308.005,107.000 310.400 M121.733 308.133 C 121.660 308.207,121.600 309.692,121.600 311.433 L 121.600 314.600 122.200 314.600 C 122.794 314.600,122.800 314.589,122.800 313.495 L 122.800 312.390 123.390 312.695 C 125.306 313.686,127.366 311.904,126.788 309.756 C 126.365 308.184,124.872 307.539,123.410 308.295 C 122.907 308.555,122.826 308.555,122.726 308.295 C 122.611 307.995,121.975 307.891,121.733 308.133 M128.751 308.351 C 126.805 309.558,127.543 312.704,129.826 312.930 C 131.242 313.070,132.290 312.233,132.527 310.772 C 132.857 308.739,130.530 307.248,128.751 308.351 M149.296 308.664 C 147.566 310.394,148.785 313.176,151.165 312.934 C 152.808 312.767,153.723 311.266,153.215 309.571 C 152.725 307.937,150.531 307.429,149.296 308.664 M154.400 310.056 C 154.400 311.919,154.444 312.178,154.821 312.519 C 155.366 313.012,157.024 313.022,157.561 312.535 C 158.019 312.121,158.200 312.111,158.200 312.500 C 158.200 312.687,158.389 312.800,158.700 312.800 L 159.200 312.800 159.200 310.387 L 159.200 307.973 158.650 308.037 C 158.114 308.098,158.099 308.135,158.042 309.530 C 157.907 312.840,155.673 313.074,155.559 309.790 C 155.500 308.112,155.496 308.100,154.950 308.037 L 154.400 307.973 154.400 310.056 M160.533 308.133 C 160.460 308.207,160.400 309.287,160.400 310.533 L 160.400 312.800 161.000 312.800 L 161.600 312.800 161.600 311.527 C 161.600 310.113,162.043 309.279,162.854 309.163 C 163.172 309.118,163.318 308.942,163.363 308.550 C 163.446 307.827,162.786 307.796,162.092 308.490 L 161.602 308.979 161.480 308.490 C 161.363 308.027,160.838 307.829,160.533 308.133 M180.400 310.387 L 180.400 312.800 181.006 312.800 L 181.613 312.800 181.556 310.450 L 181.500 308.100 180.950 308.037 L 180.400 307.973 180.400 310.387 M182.800 310.413 L 182.800 312.827 183.350 312.763 C 183.882 312.702,183.903 312.653,184.000 311.270 C 184.109 309.713,184.514 309.000,185.291 309.000 C 186.036 309.000,186.200 309.385,186.200 311.140 L 186.200 312.800 186.800 312.800 L 187.400 312.800 187.403 311.550 C 187.406 310.080,187.707 309.378,188.442 309.119 C 189.364 308.795,189.600 309.203,189.600 311.124 L 189.600 312.800 190.200 312.800 L 190.800 312.800 190.800 310.800 C 190.800 308.100,189.608 307.092,187.953 308.394 C 187.454 308.787,187.450 308.787,187.095 308.394 C 186.597 307.845,185.231 307.860,184.515 308.424 L 183.975 308.849 183.864 308.424 C 183.790 308.142,183.594 308.000,183.277 308.000 C 182.801 308.000,182.800 308.004,182.800 310.413 M192.843 308.312 C 190.328 310.074,192.370 314.037,195.053 312.600 C 195.673 312.267,195.800 312.250,195.800 312.500 C 195.800 312.701,196.000 312.800,196.406 312.800 L 197.013 312.800 196.956 310.452 C 196.897 307.986,196.575 307.343,195.876 308.299 C 195.645 308.614,195.591 308.616,195.168 308.320 C 194.586 307.912,193.420 307.908,192.843 308.312 M202.661 308.391 C 200.774 309.542,201.590 312.690,203.841 312.944 C 205.103 313.086,206.302 312.564,206.002 312.003 C 205.828 311.679,205.706 311.636,205.405 311.797 C 204.780 312.132,203.696 312.038,203.314 311.616 C 202.903 311.162,202.921 311.149,204.950 310.408 C 206.310 309.911,206.344 309.860,205.898 308.996 C 205.347 307.931,203.868 307.655,202.661 308.391 M217.933 308.133 C 217.615 308.452,217.794 311.949,218.152 312.390 C 218.659 313.016,219.902 313.129,220.850 312.634 C 221.437 312.328,221.600 312.304,221.600 312.522 C 221.600 312.698,221.822 312.800,222.206 312.800 L 222.813 312.800 222.756 310.450 L 222.700 308.100 222.150 308.037 C 221.602 307.974,221.600 307.977,221.597 309.237 C 221.592 311.237,220.685 312.376,219.519 311.845 C 219.016 311.616,219.000 311.552,219.000 309.804 C 219.000 308.005,218.634 307.432,217.933 308.133 M236.953 308.313 C 235.350 309.182,235.450 312.023,237.107 312.716 C 239.028 313.518,240.600 312.492,240.600 310.435 C 240.600 308.458,238.711 307.359,236.953 308.313 M241.742 308.125 C 241.664 308.203,241.600 309.287,241.600 310.533 L 241.600 312.800 242.200 312.800 L 242.800 312.800 242.800 311.527 C 242.800 310.058,243.285 309.200,244.115 309.200 C 244.521 309.200,244.600 309.102,244.600 308.600 C 244.600 307.825,243.982 307.783,243.306 308.512 L 242.831 309.025 242.766 308.562 C 242.701 308.107,242.042 307.825,241.742 308.125 M258.480 308.680 C 257.146 310.014,257.660 312.302,259.411 312.827 C 261.631 313.492,263.383 311.295,262.301 309.202 C 261.566 307.780,259.643 307.517,258.480 308.680 M270.568 308.305 C 268.006 309.697,269.989 313.938,272.598 312.647 C 273.219 312.340,273.400 312.312,273.400 312.525 C 273.400 312.697,273.624 312.800,274.000 312.800 L 274.600 312.800 274.600 310.400 L 274.600 308.000 274.094 308.000 C 273.815 308.000,273.536 308.133,273.474 308.295 C 273.374 308.555,273.293 308.555,272.790 308.295 C 272.077 307.926,271.259 307.930,270.568 308.305 M286.734 308.146 C 286.623 308.325,288.981 312.800,289.187 312.800 C 289.303 312.800,291.600 308.313,291.600 308.085 C 291.600 307.307,290.292 308.248,289.841 309.350 C 289.560 310.038,289.271 310.600,289.200 310.600 C 289.129 310.600,288.808 310.038,288.486 309.350 C 287.919 308.140,287.089 307.570,286.734 308.146 M293.448 308.265 C 291.417 309.393,292.117 312.682,294.444 312.944 C 295.299 313.041,296.803 312.603,296.797 312.260 C 296.788 311.785,296.440 311.565,296.039 311.779 C 295.383 312.130,294.305 312.047,293.914 311.616 C 293.503 311.162,293.521 311.149,295.550 310.408 C 296.910 309.911,296.944 309.860,296.498 308.996 C 295.991 308.015,294.529 307.665,293.448 308.265 M297.933 308.133 C 297.860 308.207,297.800 309.287,297.800 310.533 L 297.800 312.800 298.400 312.800 L 299.000 312.800 299.000 311.427 C 299.000 309.886,299.465 309.000,300.275 309.000 C 301.037 309.000,301.200 309.376,301.200 311.140 L 301.200 312.800 301.800 312.800 L 302.400 312.800 302.400 310.835 C 302.400 308.155,301.178 307.116,299.541 308.403 L 299.029 308.806 298.901 308.403 C 298.778 308.015,298.210 307.857,297.933 308.133 M307.531 308.366 C 306.887 309.077,307.141 310.256,308.037 310.719 C 308.880 311.155,308.767 311.920,307.870 311.852 C 307.111 311.794,306.777 312.342,307.327 312.745 C 309.049 314.003,310.557 311.479,308.910 310.096 C 308.029 309.357,308.020 308.681,308.892 308.848 C 309.438 308.952,309.787 308.442,309.357 308.169 C 308.898 307.878,307.873 307.988,307.531 308.366 M137.210 308.688 C 136.816 309.163,137.107 309.637,137.749 309.563 C 138.187 309.513,138.300 309.397,138.300 309.000 C 138.300 308.405,137.609 308.207,137.210 308.688 M104.742 309.526 C 104.817 309.750,102.840 310.507,102.658 310.324 C 102.437 310.104,102.986 309.192,103.448 309.013 C 103.902 308.837,104.605 309.116,104.742 309.526 M204.942 309.526 C 205.017 309.750,203.040 310.507,202.858 310.324 C 202.637 310.104,203.186 309.192,203.648 309.013 C 204.102 308.837,204.805 309.116,204.942 309.526 M227.450 309.361 C 227.884 309.734,227.904 310.762,227.489 311.355 C 226.805 312.331,225.000 311.670,225.000 310.445 C 225.000 309.055,226.382 308.444,227.450 309.361 M267.372 309.719 C 268.029 311.159,266.320 312.514,265.166 311.469 C 264.790 311.129,264.666 309.921,264.959 309.460 C 265.450 308.687,266.977 308.851,267.372 309.719 M295.549 309.548 C 295.627 309.782,293.647 310.514,293.455 310.321 C 293.236 310.103,293.790 309.191,294.248 309.013 C 294.712 308.833,295.406 309.119,295.549 309.548 M125.211 309.369 C 126.138 310.119,125.426 312.000,124.216 312.000 C 123.524 312.000,122.800 311.226,122.800 310.485 C 122.800 309.183,124.188 308.541,125.211 309.369 M131.128 309.675 C 131.937 311.370,129.940 312.781,129.019 311.165 C 128.480 310.219,129.155 309.000,130.218 309.000 C 130.690 309.000,130.870 309.134,131.128 309.675 M151.889 309.445 C 152.572 310.420,151.996 311.850,150.920 311.850 C 150.237 311.850,149.847 311.483,149.689 310.694 C 149.425 309.373,151.151 308.392,151.889 309.445 M195.400 309.400 C 196.275 310.275,195.630 311.867,194.400 311.867 C 193.214 311.867,192.589 310.476,193.311 309.445 C 193.718 308.863,194.840 308.840,195.400 309.400 M239.050 309.350 C 239.705 310.084,239.493 311.499,238.681 311.807 C 237.447 312.276,236.487 310.621,237.311 309.445 C 237.691 308.903,238.607 308.853,239.050 309.350 M261.109 309.486 C 261.858 310.629,260.905 312.258,259.745 311.817 C 259.197 311.609,258.865 310.864,258.978 310.100 C 259.141 308.999,260.528 308.599,261.109 309.486 M273.034 309.331 C 273.493 309.746,273.524 311.048,273.086 311.486 C 272.522 312.050,271.664 311.962,271.050 311.279 C 269.892 309.989,271.748 308.167,273.034 309.331 M137.132 311.889 C 136.923 312.434,137.213 312.826,137.776 312.761 C 138.185 312.713,138.300 312.591,138.300 312.200 C 138.300 311.604,137.339 311.348,137.132 311.889 " stroke="none" fill="#fafafa" fill-rule="evenodd"></path><path id="path1" d="M189.500 0.220 C 83.076 5.928,0.000 93.511,0.000 200.000 C 0.000 323.926,111.296 417.840,233.700 397.199 C 329.600 381.029,399.998 297.549,399.998 200.000 C 399.998 85.404,303.786 -5.909,189.500 0.220 M214.523 6.679 C 341.001 17.039,423.942 141.947,383.804 261.612 C 346.644 372.398,219.933 425.499,115.100 374.219 C 7.251 321.463,-27.381 184.704,42.412 87.175 C 77.048 38.775,130.481 9.740,191.200 6.326 C 194.567 6.137,210.925 6.384,214.523 6.679 M189.700 8.220 C 94.346 13.315,16.952 88.054,8.709 183.000 C -2.123 307.765,106.067 408.722,230.200 389.683 C 337.324 373.253,409.712 268.989,388.275 162.000 C 369.595 68.765,284.847 3.135,189.700 8.220 M264.200 85.823 C 265.599 86.487,266.713 87.601,267.377 89.000 L 267.900 90.100 267.900 134.100 C 267.900 184.456,268.104 179.329,266.018 181.413 C 263.935 183.493,267.783 183.292,228.850 183.354 L 194.800 183.408 194.800 181.404 L 194.800 179.400 202.200 179.400 L 209.600 179.400 209.600 146.200 L 209.600 113.000 179.000 113.000 L 148.400 113.000 148.400 114.763 L 148.400 116.526 147.326 116.971 C 146.736 117.216,145.881 117.735,145.426 118.124 L 144.600 118.831 144.600 113.915 L 144.600 108.999 179.050 109.049 L 213.500 109.100 213.551 144.250 L 213.601 179.400 214.701 179.400 L 215.800 179.400 215.800 162.800 L 215.800 146.200 235.600 146.200 L 255.400 146.200 255.400 162.800 L 255.400 179.400 258.810 179.400 C 261.467 179.400,262.349 179.333,262.807 179.097 C 264.089 178.433,264.000 181.385,264.000 139.610 L 264.000 101.600 200.000 101.600 L 136.000 101.600 136.000 139.610 C 136.000 173.194,136.035 177.688,136.303 178.207 C 136.803 179.172,137.508 179.400,139.997 179.400 L 142.214 179.400 142.157 181.350 L 142.100 183.300 139.700 183.285 C 136.518 183.266,135.501 182.933,133.984 181.416 C 131.896 179.328,132.100 184.459,132.100 134.100 L 132.100 90.100 132.623 89.000 C 133.183 87.819,134.329 86.556,135.300 86.047 C 136.928 85.194,134.482 85.224,200.300 85.263 L 263.100 85.300 264.200 85.823 M137.803 89.205 C 137.419 89.295,136.857 89.647,136.553 89.988 L 136.000 90.606 136.000 94.103 L 136.000 97.600 200.000 97.600 L 264.000 97.600 264.000 94.103 L 264.000 90.606 263.450 89.993 C 263.121 89.626,262.578 89.305,262.100 89.194 C 261.099 88.963,138.786 88.974,137.803 89.205 M143.850 91.999 C 145.513 93.835,143.217 96.646,140.993 95.497 C 139.764 94.861,139.418 93.084,140.317 92.017 C 141.278 90.874,142.824 90.867,143.850 91.999 M149.850 91.999 C 151.083 93.360,150.026 95.800,148.204 95.800 C 147.431 95.800,146.430 95.237,146.113 94.626 C 144.809 92.103,147.946 89.899,149.850 91.999 M155.850 91.999 C 156.826 93.076,156.491 94.832,155.180 95.510 C 153.545 96.356,151.615 94.989,151.860 93.160 C 152.131 91.140,154.458 90.463,155.850 91.999 M254.411 91.806 C 255.521 92.400,255.603 94.025,254.568 94.896 L 253.966 95.403 210.666 95.351 L 167.365 95.300 166.883 94.739 C 166.216 93.964,166.220 92.762,166.891 92.091 L 167.382 91.600 210.704 91.600 C 240.035 91.600,254.151 91.667,254.411 91.806 M255.400 126.901 L 255.400 144.802 235.650 144.751 L 215.900 144.700 215.848 127.100 C 215.820 117.420,215.840 109.388,215.892 109.250 C 215.967 109.052,220.113 109.000,235.694 109.000 L 255.400 109.000 255.400 126.901 M219.800 126.900 L 219.800 140.800 235.700 140.800 L 251.600 140.800 251.600 126.900 L 251.600 113.000 235.700 113.000 L 219.800 113.000 219.800 126.900 M188.224 118.927 C 189.492 119.514,190.727 120.677,191.366 121.887 L 191.900 122.900 191.900 162.900 L 191.900 202.900 191.460 203.723 C 190.463 205.586,189.185 206.607,187.221 207.110 C 185.274 207.609,150.084 207.448,148.761 206.935 C 147.415 206.412,146.127 205.191,145.413 203.762 L 144.800 202.536 144.800 163.004 C 144.800 118.605,144.659 122.467,146.344 120.593 C 147.293 119.538,147.962 119.104,149.300 118.678 C 150.908 118.165,187.078 118.397,188.224 118.927 M150.207 122.461 C 148.897 122.912,148.600 123.684,148.600 126.630 L 148.600 129.200 168.400 129.200 L 188.200 129.200 188.200 126.630 C 188.200 123.684,187.903 122.912,186.593 122.461 C 185.598 122.118,151.202 122.118,150.207 122.461 M171.214 125.717 C 171.855 126.489,171.250 126.700,168.400 126.700 C 166.138 126.700,165.712 126.650,165.533 126.367 C 165.053 125.605,165.660 125.400,168.400 125.400 C 170.484 125.400,170.999 125.458,171.214 125.717 M148.600 162.000 L 148.600 191.000 150.200 191.000 L 151.800 191.000 151.800 180.100 L 151.800 169.200 168.400 169.200 L 185.000 169.200 185.000 180.100 L 185.000 191.000 186.600 191.000 L 188.200 191.000 188.200 162.000 L 188.200 133.000 168.400 133.000 L 148.600 133.000 148.600 162.000 M184.900 152.700 L 184.900 166.900 168.350 166.951 L 151.800 167.002 151.800 152.700 L 151.800 138.398 168.350 138.449 L 184.900 138.500 184.900 152.700 M155.600 152.700 L 155.600 163.000 168.300 163.000 L 181.000 163.000 181.000 152.700 L 181.000 142.400 168.300 142.400 L 155.600 142.400 155.600 152.700 M219.800 164.700 L 219.800 179.400 235.700 179.400 L 251.600 179.400 251.600 164.700 L 251.600 150.000 235.700 150.000 L 219.800 150.000 219.800 164.700 M155.600 181.700 L 155.600 190.400 168.300 190.400 L 181.000 190.400 181.000 181.700 L 181.000 173.000 168.300 173.000 L 155.600 173.000 155.600 181.700 M148.600 198.210 C 148.600 201.983,148.739 202.551,149.793 203.097 C 150.697 203.564,186.121 203.554,187.026 203.087 C 188.023 202.571,188.200 201.821,188.200 198.106 L 188.200 194.800 168.400 194.800 L 148.600 194.800 148.600 198.210 M169.823 196.837 C 172.441 198.308,171.401 202.300,168.400 202.300 C 166.219 202.300,164.829 200.106,165.774 198.153 C 166.552 196.547,168.297 195.979,169.823 196.837 M227.187 223.323 C 230.051 224.028,233.950 226.808,234.298 228.392 C 234.521 229.407,233.453 231.355,232.365 231.918 L 231.761 232.230 230.331 230.850 C 224.792 225.506,217.800 228.491,217.800 236.200 C 217.800 240.666,219.041 242.378,225.231 246.457 C 232.585 251.302,234.690 254.497,234.943 261.200 C 235.386 272.886,226.600 279.754,216.900 275.303 C 211.207 272.691,209.025 268.002,212.545 265.946 C 213.348 265.477,213.504 265.563,214.886 267.238 C 221.187 274.878,230.030 271.432,229.333 261.609 C 229.026 257.281,227.899 255.852,221.272 251.381 C 214.062 246.517,212.144 243.450,212.152 236.800 C 212.166 226.989,218.610 221.212,227.187 223.323 M109.960 223.640 C 110.231 223.911,110.296 227.540,110.037 227.947 C 109.918 228.134,108.216 228.207,103.090 228.247 L 96.300 228.300 96.248 237.450 L 96.196 246.600 101.732 246.600 C 108.425 246.600,108.000 246.431,108.000 249.093 C 108.000 251.887,108.466 251.681,101.866 251.800 L 96.300 251.900 96.248 261.550 L 96.196 271.200 102.984 271.200 C 110.995 271.200,110.400 271.013,110.400 273.527 C 110.400 276.275,111.520 276.000,100.333 276.000 C 93.092 276.000,90.620 275.940,90.440 275.760 C 89.995 275.315,90.103 223.876,90.550 223.616 C 91.085 223.304,109.647 223.327,109.960 223.640 M200.112 223.684 C 200.481 223.953,200.505 224.337,200.600 231.534 L 200.700 239.100 203.300 239.152 C 206.524 239.216,206.600 239.272,206.600 241.578 C 206.600 243.971,206.561 244.000,203.289 244.000 L 200.600 244.000 200.603 255.550 C 200.608 271.634,200.593 271.579,205.035 271.762 C 207.559 271.866,207.600 271.900,207.600 273.904 C 207.600 276.133,207.238 276.320,203.256 276.148 C 198.601 275.947,196.910 274.474,195.852 269.700 C 195.596 268.546,195.527 266.164,195.457 256.150 L 195.372 244.000 194.024 244.000 C 192.045 244.000,191.900 243.840,191.900 241.647 C 191.900 239.346,192.014 239.200,193.813 239.200 C 195.540 239.200,195.354 239.881,195.708 232.267 C 196.061 224.695,196.117 224.111,196.526 223.702 C 196.933 223.296,199.562 223.282,200.112 223.684 M302.379 223.583 C 302.864 223.890,302.976 225.522,302.988 232.450 L 303.000 239.200 305.676 239.200 C 308.960 239.200,308.900 239.154,308.900 241.647 C 308.900 244.007,308.910 244.000,305.554 244.000 L 302.985 244.000 303.043 256.250 L 303.100 268.500 303.600 269.682 C 304.333 271.415,304.781 271.670,307.255 271.765 C 309.815 271.864,309.800 271.852,309.800 273.920 C 309.800 276.240,309.712 276.293,306.043 276.145 C 301.905 275.979,300.438 275.249,299.207 272.742 C 297.957 270.196,297.936 269.946,297.853 256.350 L 297.778 244.000 296.300 244.000 C 294.407 244.000,294.200 243.763,294.200 241.600 C 294.200 239.459,294.418 239.200,296.218 239.200 C 297.932 239.200,297.718 240.034,298.093 231.900 C 298.447 224.233,298.483 223.888,298.958 223.612 C 299.382 223.364,301.999 223.342,302.379 223.583 M153.525 239.571 C 157.227 241.559,159.042 246.411,159.082 254.427 C 159.107 259.293,159.942 258.800,151.669 258.800 L 145.000 258.800 145.002 260.350 C 145.009 267.527,147.254 272.191,150.700 272.191 C 153.072 272.191,154.326 270.615,154.974 266.818 L 155.302 264.900 156.953 264.842 C 158.988 264.770,159.106 264.937,158.925 267.613 C 158.535 273.390,155.675 276.300,150.389 276.300 C 143.847 276.300,140.645 271.756,139.783 261.250 C 138.914 250.651,141.396 241.949,145.951 239.625 C 148.070 238.544,151.565 238.519,153.525 239.571 M180.802 239.331 C 182.730 240.195,184.007 242.283,184.824 245.911 C 185.357 248.279,185.684 275.117,185.187 275.716 C 184.798 276.184,180.877 276.118,180.621 275.639 C 180.505 275.422,180.394 269.938,180.343 261.889 C 180.254 247.786,180.189 246.746,179.290 244.965 C 177.351 241.124,173.304 243.272,171.687 249.000 C 171.354 250.177,171.309 251.488,171.210 262.900 C 171.149 269.830,171.027 275.613,170.938 275.750 C 170.671 276.162,166.726 276.092,166.374 275.669 C 166.082 275.317,165.832 243.134,166.104 240.850 C 166.294 239.253,167.575 238.578,168.492 239.591 C 168.788 239.919,169.563 244.247,169.595 245.750 C 169.606 246.263,169.973 245.976,170.108 245.350 C 171.174 240.395,176.494 237.401,180.802 239.331 M254.768 239.481 C 260.602 242.451,263.226 256.248,260.210 268.100 C 257.883 277.242,249.959 279.420,246.381 271.900 L 245.620 270.300 245.560 279.529 C 245.489 290.504,245.721 289.600,242.974 289.600 C 240.205 289.600,240.500 292.618,240.500 264.309 C 240.500 237.739,240.430 239.200,241.702 239.200 C 242.436 239.200,242.841 239.618,243.070 240.610 C 243.195 241.153,244.000 246.756,244.000 247.085 C 244.000 247.499,244.341 246.870,244.588 246.000 C 246.197 240.336,250.736 237.429,254.768 239.481 M281.700 239.395 C 286.513 241.214,289.063 249.757,288.209 261.200 C 287.384 272.261,284.598 276.300,277.796 276.300 C 270.140 276.300,267.312 271.260,267.304 257.600 C 267.297 245.744,269.382 240.631,274.850 239.097 C 276.453 238.648,280.147 238.808,281.700 239.395 M119.834 240.000 C 120.022 240.396,121.135 246.475,122.396 254.000 C 123.622 261.315,124.687 267.504,124.764 267.754 C 124.851 268.038,125.783 263.073,127.260 254.454 C 128.634 246.436,129.759 240.408,129.958 240.000 L 130.300 239.300 132.082 239.242 C 134.119 239.175,134.269 239.258,134.250 240.442 C 134.226 241.890,127.820 274.628,127.430 275.297 L 127.078 275.900 124.700 275.900 L 122.322 275.900 121.974 275.300 C 121.561 274.587,115.180 242.039,115.169 240.586 C 115.158 239.187,115.173 239.179,117.466 239.243 L 119.500 239.300 119.834 240.000 M148.700 243.283 C 146.690 244.181,145.366 247.743,145.070 253.050 L 144.939 255.400 149.869 255.400 L 154.800 255.400 154.799 254.850 C 154.789 246.610,152.209 241.717,148.700 243.283 M249.849 243.289 C 244.291 245.786,244.134 269.245,249.658 271.867 C 252.924 273.417,255.173 269.727,255.810 261.772 C 256.733 250.247,253.901 241.469,249.849 243.289 M276.300 243.287 C 273.497 244.316,272.433 248.998,272.663 259.300 C 272.874 268.768,273.958 271.797,277.256 272.138 C 281.545 272.581,283.391 266.981,282.906 255.000 C 282.514 245.299,280.508 241.743,276.300 243.287 M175.354 309.063 L 175.409 313.026 174.754 312.963 L 174.100 312.900 174.045 309.206 C 173.983 305.008,173.993 304.950,174.749 305.037 L 175.300 305.100 175.354 309.063 M225.159 306.661 C 225.215 308.176,225.230 308.217,225.659 308.061 C 228.016 307.202,229.965 309.427,228.873 311.729 C 228.349 312.834,226.675 313.376,225.587 312.793 C 225.320 312.650,225.200 312.650,225.200 312.793 C 225.200 312.907,224.885 313.000,224.500 313.000 L 223.800 313.000 223.800 309.133 C 223.800 305.014,223.812 304.950,224.593 305.041 C 225.082 305.098,225.102 305.157,225.159 306.661 M256.754 309.063 L 256.809 313.026 256.154 312.963 L 255.500 312.900 255.445 309.206 C 255.383 305.008,255.393 304.950,256.149 305.037 L 256.700 305.100 256.754 309.063 M264.758 306.731 L 264.816 308.362 265.610 308.050 C 268.285 306.999,270.144 311.016,267.757 312.688 C 267.224 313.061,265.582 313.102,265.232 312.752 C 265.034 312.554,264.950 312.557,264.820 312.768 C 264.727 312.918,264.406 313.003,264.078 312.966 L 263.500 312.900 263.445 309.206 C 263.383 305.008,263.393 304.950,264.149 305.037 C 264.695 305.099,264.701 305.116,264.758 306.731 M277.100 309.000 L 277.100 312.900 276.450 312.963 L 275.800 313.025 275.800 309.146 C 275.800 305.013,275.812 304.950,276.593 305.041 L 277.100 305.100 277.100 309.000 M120.275 305.602 C 120.745 306.054,120.207 306.819,119.512 306.689 C 117.954 306.397,117.298 307.639,118.630 308.359 C 121.809 310.080,121.350 313.003,117.900 312.996 C 116.414 312.993,116.133 312.837,116.314 312.116 C 116.445 311.593,116.491 311.575,117.387 311.698 C 119.537 311.994,119.831 310.405,117.826 309.327 C 115.735 308.202,115.782 305.919,117.908 305.338 C 118.414 305.201,120.048 305.382,120.275 305.602 M235.465 305.350 C 235.626 305.623,235.218 306.400,234.913 306.400 C 234.561 306.400,234.200 307.001,234.200 307.587 C 234.200 307.894,234.328 308.000,234.700 308.000 C 235.122 308.000,235.200 308.093,235.200 308.600 C 235.200 309.107,235.122 309.200,234.700 309.200 C 234.202 309.200,234.200 309.206,234.200 311.113 L 234.200 313.025 233.550 312.963 L 232.900 312.900 232.842 311.103 C 232.799 309.784,232.706 309.263,232.492 309.143 C 232.121 308.936,232.105 308.000,232.473 308.000 C 232.646 308.000,232.793 307.658,232.874 307.061 C 233.070 305.635,234.915 304.416,235.465 305.350 M253.756 305.577 C 254.851 306.162,254.022 306.907,252.360 306.831 C 250.389 306.740,249.608 307.304,249.452 308.933 C 249.266 310.869,250.748 312.011,252.750 311.474 C 253.665 311.229,253.374 310.000,252.400 310.000 C 251.680 310.000,251.600 309.950,251.600 309.500 C 251.600 309.014,251.640 309.000,253.000 309.000 L 254.400 309.000 254.400 310.678 L 254.400 312.357 253.596 312.678 C 250.140 314.061,247.045 311.428,248.016 307.931 C 248.610 305.792,251.751 304.503,253.756 305.577 M94.963 306.050 L 94.900 306.700 93.250 306.758 L 91.600 306.816 91.600 307.599 L 91.600 308.382 93.050 308.441 L 94.500 308.500 94.563 309.150 L 94.625 309.800 93.113 309.800 L 91.600 309.800 91.600 310.700 L 91.600 311.600 93.413 311.600 L 95.225 311.600 95.163 312.250 L 95.100 312.900 92.650 312.956 L 90.200 313.012 90.200 309.206 L 90.200 305.400 92.613 305.400 L 95.025 305.400 94.963 306.050 M144.071 306.750 C 144.888 308.816,144.869 308.813,145.594 307.015 L 146.245 305.400 147.122 305.400 C 148.199 305.400,148.230 305.147,146.800 308.000 C 145.698 310.199,145.600 310.501,145.600 311.709 L 145.600 313.024 144.850 312.962 L 144.100 312.900 144.168 311.852 C 144.229 310.916,144.106 310.528,143.018 308.207 C 141.568 305.115,141.604 305.400,142.668 305.400 L 143.537 305.400 144.071 306.750 M168.235 308.118 C 168.308 311.173,168.513 311.600,169.900 311.600 C 171.287 311.600,171.492 311.173,171.565 308.118 L 171.631 305.400 172.315 305.400 L 173.000 305.400 173.000 308.050 C 172.999 311.820,172.265 313.001,169.920 312.999 C 167.505 312.997,166.802 311.904,166.801 308.150 L 166.800 305.400 167.485 305.400 L 168.169 305.400 168.235 308.118 M181.484 305.663 C 181.908 305.974,181.843 306.567,181.350 306.878 C 180.657 307.314,179.877 306.331,180.408 305.690 C 180.707 305.330,181.017 305.322,181.484 305.663 M211.400 306.908 L 211.400 308.415 213.250 308.358 L 215.100 308.300 215.159 306.850 L 215.218 305.400 215.909 305.400 L 216.600 305.400 216.600 309.200 L 216.600 313.000 215.908 313.000 L 215.217 313.000 215.158 311.450 L 215.100 309.900 213.250 309.842 L 211.400 309.785 211.400 311.392 L 211.400 313.000 210.700 313.000 L 210.000 313.000 210.000 309.200 L 210.000 305.400 210.700 305.400 L 211.400 305.400 211.400 306.908 M285.763 306.050 L 285.700 306.700 284.150 306.758 L 282.600 306.817 282.600 307.599 L 282.600 308.382 283.950 308.441 L 285.300 308.500 285.363 309.150 L 285.425 309.800 284.013 309.800 L 282.600 309.800 282.600 310.700 L 282.600 311.600 284.300 311.600 L 286.000 311.600 286.000 312.300 L 286.000 313.000 283.500 313.000 L 281.000 313.000 281.000 309.200 L 281.000 305.400 283.413 305.400 L 285.825 305.400 285.763 306.050 M114.560 306.950 C 114.616 307.907,114.663 308.000,115.099 308.000 C 115.672 308.000,115.870 308.264,115.699 308.802 C 115.620 309.053,115.397 309.200,115.094 309.200 C 114.627 309.200,114.614 309.248,114.558 311.050 L 114.500 312.900 113.850 312.963 L 113.200 313.025 113.200 311.113 C 113.200 309.333,113.172 309.200,112.800 309.200 C 112.489 309.200,112.400 309.067,112.400 308.600 C 112.400 308.133,112.489 308.000,112.800 308.000 C 113.152 308.000,113.200 307.867,113.200 306.887 L 113.200 305.775 113.850 305.837 C 114.484 305.898,114.502 305.926,114.560 306.950 M135.360 306.950 C 135.416 307.914,135.461 308.000,135.910 308.000 C 136.321 308.000,136.400 308.097,136.400 308.600 C 136.400 309.104,136.321 309.200,135.908 309.200 C 135.424 309.200,135.414 309.233,135.358 311.050 L 135.300 312.900 134.650 312.963 L 134.000 313.025 134.000 311.113 C 134.000 309.333,133.972 309.200,133.600 309.200 C 133.289 309.200,133.200 309.067,133.200 308.600 C 133.200 308.133,133.289 308.000,133.600 308.000 C 133.952 308.000,134.000 307.867,134.000 306.887 L 134.000 305.775 134.650 305.837 C 135.284 305.898,135.302 305.926,135.360 306.950 M178.360 306.938 C 178.416 307.899,178.460 307.980,178.960 308.038 C 179.753 308.129,179.745 309.072,178.950 309.163 L 178.400 309.227 178.400 311.113 L 178.400 313.000 177.700 313.000 L 177.000 313.000 177.000 311.100 C 177.000 309.333,176.972 309.200,176.600 309.200 C 176.289 309.200,176.200 309.067,176.200 308.600 C 176.200 308.133,176.289 308.000,176.600 308.000 C 176.952 308.000,177.000 307.867,177.000 306.887 L 177.000 305.775 177.650 305.837 C 178.283 305.898,178.302 305.928,178.360 306.938 M199.960 306.950 C 200.016 307.914,200.061 308.000,200.510 308.000 C 200.921 308.000,201.000 308.097,201.000 308.600 C 201.000 309.104,200.921 309.200,200.508 309.200 C 200.024 309.200,200.014 309.233,199.958 311.050 L 199.900 312.900 199.250 312.963 L 198.600 313.025 198.600 311.113 C 198.600 309.333,198.572 309.200,198.200 309.200 C 197.889 309.200,197.800 309.067,197.800 308.600 C 197.800 308.133,197.889 308.000,198.200 308.000 C 198.552 308.000,198.600 307.867,198.600 306.887 L 198.600 305.775 199.250 305.837 C 199.884 305.898,199.902 305.926,199.960 306.950 M305.360 306.938 C 305.416 307.899,305.460 307.980,305.960 308.038 C 306.753 308.129,306.745 309.072,305.950 309.163 L 305.400 309.227 305.400 311.113 L 305.400 313.000 304.700 313.000 L 304.000 313.000 304.000 311.123 C 304.000 309.415,303.964 309.237,303.600 309.142 C 303.330 309.071,303.200 308.869,303.200 308.519 C 303.200 308.133,303.303 308.000,303.600 308.000 C 303.952 308.000,304.000 307.867,304.000 306.887 L 304.000 305.775 304.650 305.837 C 305.283 305.898,305.302 305.928,305.360 306.938 M105.166 308.302 C 105.860 308.886,106.327 309.969,105.943 310.102 C 104.180 310.712,103.110 311.170,103.054 311.339 C 102.914 311.759,104.120 312.058,104.907 311.798 C 105.718 311.530,106.084 311.713,105.966 312.329 C 105.764 313.388,102.841 313.282,101.915 312.181 C 100.062 309.979,102.997 306.477,105.166 308.302 M111.237 308.333 C 111.545 308.613,111.600 308.990,111.600 310.844 L 111.600 313.025 110.950 312.963 L 110.300 312.900 110.200 311.100 L 110.100 309.300 109.478 309.239 C 108.650 309.159,108.200 310.057,108.200 311.793 L 108.200 313.025 107.550 312.963 L 106.900 312.900 106.900 310.500 L 106.900 308.100 107.550 308.037 C 108.014 307.993,108.200 308.058,108.200 308.266 C 108.200 308.503,108.338 308.485,108.950 308.168 C 109.785 307.736,110.645 307.798,111.237 308.333 M126.253 308.561 C 128.272 310.580,125.892 314.133,123.409 312.805 C 123.083 312.630,123.030 312.726,122.907 313.716 C 122.769 314.814,122.763 314.822,122.134 314.761 C 121.414 314.692,121.476 315.157,121.558 310.400 L 121.600 308.000 122.183 308.000 C 122.504 308.000,122.801 308.102,122.843 308.228 C 122.895 308.385,123.101 308.353,123.509 308.125 C 124.368 307.645,125.520 307.828,126.253 308.561 M131.943 308.677 C 132.694 309.496,132.839 310.759,132.301 311.798 C 131.121 314.080,127.600 313.156,127.600 310.565 C 127.600 308.037,130.286 306.870,131.943 308.677 M152.079 308.103 C 153.600 308.825,153.945 311.095,152.720 312.320 C 151.537 313.503,149.440 313.231,148.699 311.798 C 147.521 309.520,149.804 307.024,152.079 308.103 M187.148 308.262 C 187.382 308.497,187.541 308.480,188.205 308.152 C 190.026 307.251,190.760 307.990,190.840 310.805 L 190.900 312.900 190.250 312.963 L 189.600 313.025 189.600 312.041 C 189.600 309.773,189.411 309.172,188.721 309.239 C 187.886 309.321,187.401 310.285,187.400 311.863 L 187.400 313.025 186.750 312.963 L 186.100 312.900 186.042 311.050 L 185.985 309.200 185.423 309.200 C 184.494 309.200,184.116 309.828,184.031 311.518 L 183.956 313.000 183.272 313.000 L 182.588 313.000 182.644 310.550 L 182.700 308.100 183.350 308.037 C 183.814 307.993,184.000 308.058,184.000 308.266 C 184.000 308.503,184.139 308.485,184.750 308.167 C 185.571 307.739,186.669 307.783,187.148 308.262 M194.999 308.099 C 195.364 308.288,195.623 308.325,195.700 308.199 C 195.768 308.090,196.088 308.000,196.412 308.000 L 197.000 308.000 197.000 310.500 L 197.000 313.000 196.394 313.000 C 196.042 313.000,195.740 312.875,195.673 312.703 C 195.573 312.440,195.510 312.440,195.135 312.703 C 194.397 313.220,193.055 313.086,192.399 312.430 C 190.444 310.474,192.610 306.864,194.999 308.099 M205.058 308.017 C 205.552 308.242,206.110 309.029,206.231 309.669 C 206.286 309.965,206.008 310.144,204.813 310.579 C 203.134 311.190,202.924 311.437,203.781 311.792 C 204.248 311.986,204.534 311.987,205.107 311.798 C 205.918 311.530,206.284 311.713,206.166 312.329 C 205.964 313.388,203.041 313.282,202.115 312.181 C 200.417 310.163,202.695 306.941,205.058 308.017 M239.419 308.110 C 240.643 308.743,241.110 310.270,240.516 311.693 C 239.912 313.137,237.658 313.498,236.496 312.336 C 234.394 310.234,236.800 306.755,239.419 308.110 M261.266 308.073 C 262.961 308.781,263.244 311.254,261.771 312.493 C 260.659 313.429,258.549 313.055,257.903 311.807 C 256.726 309.531,258.921 307.093,261.266 308.073 M272.684 308.107 C 273.098 308.323,273.309 308.347,273.406 308.190 C 273.482 308.068,273.804 307.998,274.122 308.034 L 274.700 308.100 274.700 310.500 L 274.700 312.900 274.050 312.963 C 273.563 313.010,273.400 312.946,273.400 312.708 C 273.400 312.420,273.344 312.419,272.810 312.695 C 270.878 313.694,269.257 312.525,269.445 310.266 C 269.605 308.335,271.148 307.306,272.684 308.107 M295.783 308.091 C 296.351 308.385,297.147 309.719,296.901 309.965 C 296.828 310.038,296.127 310.333,295.344 310.621 C 293.722 311.215,293.536 311.442,294.381 311.792 C 294.848 311.986,295.134 311.987,295.707 311.798 C 296.518 311.530,296.884 311.713,296.766 312.329 C 296.583 313.285,293.789 313.280,292.832 312.323 C 290.864 310.355,293.328 306.822,295.783 308.091 M301.896 308.250 C 302.387 308.676,302.417 308.814,302.457 310.800 L 302.500 312.900 301.922 312.966 C 301.131 313.056,301.007 312.769,301.003 310.850 L 301.000 309.200 300.431 309.200 C 299.509 309.200,299.153 309.793,299.043 311.510 L 298.946 313.021 298.323 312.961 L 297.700 312.900 297.700 310.500 L 297.700 308.100 298.350 308.037 C 298.814 307.993,299.000 308.058,299.000 308.266 C 299.000 308.505,299.133 308.489,299.742 308.178 C 300.715 307.683,301.263 307.701,301.896 308.250 M309.160 307.929 C 309.837 308.110,309.681 308.879,308.950 308.963 C 308.218 309.047,308.257 309.340,309.100 310.113 C 310.597 311.484,309.546 313.609,307.676 312.992 C 306.606 312.639,306.743 311.669,307.850 311.766 C 308.832 311.852,308.819 311.541,307.800 310.600 C 306.294 309.210,307.212 307.407,309.160 307.929 M97.777 309.250 L 98.356 310.500 98.911 309.250 C 99.433 308.073,100.800 307.312,100.800 308.198 C 100.800 308.502,98.526 313.000,98.372 313.000 C 98.251 313.000,95.600 308.305,95.600 308.089 C 95.600 308.040,95.960 308.000,96.399 308.000 C 97.185 308.000,97.209 308.022,97.777 309.250 M155.600 309.660 C 155.600 311.481,155.755 311.800,156.643 311.800 C 157.489 311.800,157.998 310.839,157.999 309.237 L 158.000 307.975 158.650 308.037 L 159.300 308.100 159.300 310.500 L 159.300 312.900 158.749 312.963 C 158.391 313.005,158.156 312.918,158.079 312.716 C 157.973 312.440,157.912 312.439,157.535 312.703 C 156.832 313.195,155.271 313.089,154.691 312.509 C 154.235 312.053,154.200 311.876,154.200 310.009 L 154.200 308.000 154.900 308.000 L 155.600 308.000 155.600 309.660 M161.600 308.400 L 161.600 308.800 162.000 308.400 C 162.443 307.957,163.609 307.847,163.586 308.250 C 163.556 308.787,163.255 309.268,162.920 309.318 C 161.968 309.457,161.603 310.216,161.601 312.063 L 161.600 313.025 160.950 312.963 L 160.300 312.900 160.243 310.713 C 160.175 308.120,160.208 308.000,160.994 308.000 C 161.467 308.000,161.600 308.088,161.600 308.400 M181.600 310.513 L 181.600 313.025 180.950 312.963 L 180.300 312.900 180.244 310.450 L 180.188 308.000 180.894 308.000 L 181.600 308.000 181.600 310.513 M219.200 309.900 L 219.300 311.700 219.927 311.761 C 220.927 311.858,221.400 311.091,221.400 309.373 L 221.400 308.000 222.100 308.000 L 222.800 308.000 222.800 310.500 L 222.800 313.000 222.200 313.000 C 221.800 313.000,221.600 312.900,221.600 312.700 C 221.600 312.327,221.411 312.328,220.912 312.706 C 220.365 313.120,218.745 313.086,218.234 312.650 C 217.765 312.249,217.746 312.128,217.777 309.737 L 217.800 307.975 218.450 308.037 L 219.100 308.100 219.200 309.900 M242.800 308.435 L 242.800 308.870 243.263 308.435 C 243.836 307.896,244.801 307.843,244.797 308.350 C 244.793 308.843,244.490 309.263,244.098 309.321 C 243.318 309.435,243.018 310.001,242.958 311.473 C 242.901 312.882,242.893 312.901,242.322 312.966 C 241.523 313.057,241.492 312.947,241.562 310.320 L 241.624 308.000 242.212 308.000 C 242.682 308.000,242.800 308.087,242.800 308.435 M288.561 309.193 C 289.225 310.663,289.202 310.663,289.784 309.200 C 290.240 308.052,291.600 307.323,291.600 308.227 C 291.600 308.550,289.329 312.998,289.163 312.999 C 288.996 313.000,286.600 308.539,286.600 308.225 C 286.600 307.334,288.043 308.046,288.561 309.193 M138.286 308.514 C 138.921 309.149,138.404 309.945,137.503 309.719 C 136.900 309.567,136.802 308.735,137.350 308.416 C 137.824 308.140,137.921 308.150,138.286 308.514 M103.131 309.366 C 102.451 310.117,102.711 310.345,103.820 309.970 C 104.695 309.675,104.703 309.665,104.404 309.305 C 104.064 308.895,103.534 308.920,103.131 309.366 M123.600 309.259 C 122.948 309.586,122.761 311.131,123.325 311.543 C 123.845 311.924,124.745 311.855,125.200 311.400 C 126.253 310.347,124.939 308.589,123.600 309.259 M129.400 309.400 C 128.889 309.911,128.871 311.021,129.366 311.469 C 130.162 312.190,131.200 311.604,131.200 310.434 C 131.200 309.762,130.615 309.000,130.100 309.000 C 129.935 309.000,129.620 309.180,129.400 309.400 M150.200 309.400 C 149.442 310.158,149.907 311.800,150.880 311.800 C 151.953 311.800,152.457 309.943,151.555 309.311 C 150.968 308.900,150.681 308.919,150.200 309.400 M193.589 309.369 C 192.671 310.112,193.234 311.800,194.400 311.800 C 195.124 311.800,195.600 311.223,195.600 310.346 C 195.600 309.160,194.504 308.628,193.589 309.369 M203.331 309.366 C 202.651 310.117,202.911 310.345,204.020 309.970 C 204.895 309.675,204.903 309.665,204.604 309.305 C 204.264 308.895,203.734 308.920,203.331 309.366 M225.639 309.312 C 225.264 309.578,225.190 309.789,225.239 310.462 C 225.355 312.036,227.159 312.243,227.686 310.743 C 228.087 309.603,226.650 308.598,225.639 309.312 M237.739 309.222 C 236.976 309.666,236.929 311.176,237.663 311.643 C 238.857 312.402,240.032 310.432,239.000 309.400 C 238.553 308.953,238.270 308.913,237.739 309.222 M259.515 309.314 C 258.827 310.001,258.890 311.220,259.632 311.617 C 260.260 311.953,260.933 311.681,261.172 310.996 C 261.632 309.676,260.401 308.427,259.515 309.314 M265.200 309.400 C 264.748 309.852,264.675 310.756,265.050 311.259 C 265.471 311.824,266.491 311.909,266.979 311.421 C 267.825 310.575,267.253 309.000,266.100 309.000 C 265.825 309.000,265.420 309.180,265.200 309.400 M271.200 309.400 C 270.374 310.226,270.964 311.800,272.100 311.800 C 273.475 311.800,273.896 309.879,272.663 309.230 C 272.036 308.900,271.656 308.944,271.200 309.400 M293.931 309.366 C 293.251 310.117,293.511 310.345,294.620 309.970 C 295.495 309.675,295.503 309.665,295.204 309.305 C 294.864 308.895,294.334 308.920,293.931 309.366 M138.213 311.607 C 138.758 311.898,138.699 312.563,138.106 312.834 C 137.275 313.212,136.600 312.280,137.240 311.640 C 137.534 311.346,137.714 311.340,138.213 311.607 " stroke="none" fill="#63747c" fill-rule="evenodd"></path><path id="path2" d="M132.098 134.300 C 132.098 158.170,132.122 167.905,132.150 155.934 C 132.178 143.963,132.178 124.433,132.150 112.534 C 132.122 100.635,132.098 110.430,132.098 134.300 M267.898 134.300 C 267.898 158.170,267.922 167.905,267.950 155.934 C 267.978 143.963,267.978 124.433,267.950 112.534 C 267.922 100.635,267.898 110.430,267.898 134.300 M135.892 94.550 L 135.900 97.700 200.000 97.700 L 264.100 97.700 264.108 94.650 L 264.116 91.600 264.053 94.600 L 263.990 97.600 200.000 97.600 L 136.010 97.600 135.947 94.500 L 135.884 91.400 135.892 94.550 M135.893 101.650 C 135.840 101.787,135.821 118.820,135.849 139.500 L 135.901 177.100 135.951 139.350 L 136.000 101.600 199.999 101.600 L 263.999 101.600 264.050 139.350 L 264.102 177.100 264.101 139.300 L 264.100 101.500 200.044 101.450 C 148.904 101.410,135.968 101.450,135.893 101.650 M178.999 109.150 L 213.399 109.201 213.450 144.301 L 213.502 179.400 213.501 144.250 L 213.500 109.100 179.050 109.099 L 144.600 109.098 178.999 109.150 M215.892 109.250 C 215.840 109.388,215.820 117.420,215.848 127.100 L 215.900 144.700 235.600 144.701 L 255.300 144.703 235.650 144.650 L 216.000 144.598 216.000 126.900 L 216.000 109.202 235.750 109.150 L 255.500 109.098 235.744 109.049 C 220.087 109.010,215.968 109.052,215.892 109.250 M209.698 146.200 C 209.698 164.515,209.721 172.008,209.750 162.850 C 209.779 153.693,209.779 138.708,209.750 129.550 C 209.721 120.393,209.698 127.885,209.698 146.200 M168.350 138.549 L 184.800 138.602 184.800 152.700 L 184.800 166.798 168.250 166.851 L 151.700 166.904 168.300 166.902 L 184.900 166.900 184.900 152.700 L 184.900 138.500 168.400 138.498 L 151.900 138.497 168.350 138.549 M161.964 142.350 C 165.520 142.381,171.280 142.381,174.764 142.350 C 178.249 142.319,175.340 142.294,168.300 142.294 C 161.260 142.294,158.409 142.319,161.964 142.350 M215.895 162.800 C 215.895 171.985,215.920 175.743,215.950 171.150 C 215.980 166.558,215.980 159.043,215.950 154.450 C 215.920 149.858,215.895 153.615,215.895 162.800 M184.893 180.100 C 184.893 186.150,184.919 188.654,184.950 185.664 C 184.981 182.674,184.981 177.724,184.950 174.664 C 184.919 171.604,184.893 174.050,184.893 180.100 M139.157 183.348 C 139.738 183.388,140.638 183.388,141.157 183.347 C 141.676 183.306,141.200 183.273,140.100 183.273 C 139.000 183.274,138.576 183.307,139.157 183.348 M211.566 183.350 C 220.842 183.379,235.962 183.379,245.166 183.350 C 254.370 183.321,246.780 183.298,228.300 183.298 C 209.820 183.298,202.290 183.321,211.566 183.350 M168.050 202.338 C 168.243 202.388,168.558 202.388,168.750 202.338 C 168.942 202.288,168.785 202.246,168.400 202.246 C 168.015 202.246,167.858 202.288,168.050 202.338 M159.550 203.550 C 164.418 203.580,172.383 203.580,177.250 203.550 C 182.118 203.520,178.135 203.496,168.400 203.496 C 158.665 203.496,154.683 203.520,159.550 203.550 M159.350 207.350 C 164.328 207.380,172.473 207.380,177.450 207.350 C 182.428 207.320,178.355 207.296,168.400 207.296 C 158.445 207.296,154.373 207.320,159.350 207.350 M200.490 231.500 C 200.490 235.350,200.517 236.897,200.550 234.937 C 200.583 232.978,200.582 229.828,200.550 227.937 C 200.517 226.047,200.490 227.650,200.490 231.500 M302.890 232.100 C 302.890 235.840,302.917 237.342,302.950 235.437 C 302.983 233.533,302.983 230.473,302.950 228.637 C 302.917 226.802,302.890 228.360,302.890 232.100 M230.400 230.900 C 230.773 231.285,231.123 231.600,231.178 231.600 C 231.233 231.600,230.973 231.285,230.600 230.900 C 230.227 230.515,229.877 230.200,229.822 230.200 C 229.767 230.200,230.027 230.515,230.400 230.900 M212.054 237.000 C 212.054 237.495,212.093 237.697,212.141 237.450 C 212.189 237.203,212.189 236.798,212.141 236.550 C 212.093 236.303,212.054 236.505,212.054 237.000 M308.860 241.600 C 308.860 242.205,308.897 242.453,308.943 242.150 C 308.989 241.847,308.989 241.353,308.943 241.050 C 308.897 240.748,308.860 240.995,308.860 241.600 M166.096 257.800 C 166.096 267.205,166.120 271.053,166.150 266.350 C 166.180 261.648,166.180 253.953,166.150 249.250 C 166.120 244.548,166.096 248.395,166.096 257.800 M240.497 264.200 C 240.497 277.015,240.521 282.258,240.550 275.850 C 240.579 269.443,240.579 258.958,240.550 252.550 C 240.521 246.143,240.497 251.385,240.497 264.200 M193.150 243.945 C 193.508 243.989,194.093 243.989,194.450 243.945 C 194.808 243.900,194.515 243.864,193.800 243.864 C 193.085 243.864,192.793 243.900,193.150 243.945 M202.258 243.948 C 203.005 243.987,204.175 243.987,204.858 243.948 C 205.541 243.909,204.930 243.877,203.500 243.878 C 202.070 243.878,201.511 243.910,202.258 243.948 M295.346 243.944 C 295.701 243.989,296.331 243.989,296.746 243.946 C 297.160 243.903,296.870 243.867,296.100 243.866 C 295.330 243.865,294.990 243.900,295.346 243.944 M304.550 243.948 C 305.238 243.987,306.363 243.987,307.050 243.948 C 307.738 243.909,307.175 243.877,305.800 243.877 C 304.425 243.877,303.863 243.909,304.550 243.948 M302.893 255.200 C 302.893 261.305,302.919 263.803,302.950 260.750 C 302.981 257.697,302.981 252.703,302.950 249.650 C 302.919 246.597,302.893 249.095,302.893 255.200 M200.493 254.700 C 200.493 260.420,200.519 262.731,200.550 259.836 C 200.581 256.941,200.581 252.261,200.550 249.436 C 200.519 246.611,200.493 248.980,200.493 254.700 M99.162 246.750 C 100.736 246.783,103.256 246.783,104.762 246.749 C 106.268 246.716,104.980 246.688,101.900 246.688 C 98.820 246.688,97.588 246.716,99.162 246.750 M96.331 251.750 C 96.279 251.832,97.872 251.877,99.869 251.849 C 106.648 251.753,107.315 251.684,101.862 251.642 C 98.871 251.619,96.382 251.668,96.331 251.750 M282.850 254.100 C 282.853 254.540,282.894 254.696,282.941 254.448 C 282.989 254.199,282.987 253.839,282.937 253.648 C 282.887 253.456,282.848 253.660,282.850 254.100 M261.250 255.500 C 261.253 255.940,261.294 256.096,261.341 255.848 C 261.389 255.599,261.387 255.239,261.337 255.048 C 261.287 254.856,261.248 255.060,261.250 255.500 M139.677 257.600 C 139.677 258.975,139.709 259.538,139.748 258.850 C 139.787 258.163,139.787 257.038,139.748 256.350 C 139.709 255.663,139.677 256.225,139.677 257.600 M288.276 257.600 C 288.276 258.865,288.308 259.382,288.348 258.750 C 288.387 258.118,288.387 257.082,288.348 256.450 C 288.308 255.818,288.276 256.335,288.276 257.600 M261.254 259.600 C 261.254 260.095,261.293 260.298,261.341 260.050 C 261.389 259.803,261.389 259.397,261.341 259.150 C 261.293 258.903,261.254 259.105,261.254 259.600 M282.850 260.900 C 282.853 261.340,282.894 261.496,282.941 261.248 C 282.989 260.999,282.987 260.639,282.937 260.448 C 282.887 260.256,282.848 260.460,282.850 260.900 M195.450 265.900 C 195.453 266.340,195.494 266.496,195.541 266.248 C 195.589 265.999,195.587 265.639,195.537 265.448 C 195.487 265.256,195.448 265.460,195.450 265.900 M212.400 272.063 C 212.400 272.097,212.693 272.390,213.050 272.713 L 213.700 273.300 213.113 272.650 C 212.565 272.044,212.400 271.908,212.400 272.063 M207.466 273.900 C 207.467 274.670,207.503 274.960,207.546 274.546 C 207.589 274.131,207.589 273.501,207.544 273.146 C 207.500 272.790,207.465 273.130,207.466 273.900 M230.789 273.350 L 230.100 274.100 230.850 273.411 C 231.263 273.032,231.600 272.694,231.600 272.661 C 231.600 272.508,231.431 272.652,230.789 273.350 M203.158 276.148 C 203.850 276.187,204.930 276.187,205.558 276.148 C 206.186 276.108,205.620 276.076,204.300 276.076 C 202.980 276.077,202.466 276.109,203.158 276.148 M305.558 276.148 C 306.250 276.187,307.330 276.187,307.958 276.148 C 308.586 276.108,308.020 276.076,306.700 276.076 C 305.380 276.077,304.866 276.109,305.558 276.148 M242.050 289.547 C 242.572 289.588,243.428 289.588,243.950 289.547 C 244.472 289.506,244.045 289.472,243.000 289.472 C 241.955 289.472,241.528 289.506,242.050 289.547 M224.000 305.077 C 224.000 305.120,224.265 305.194,224.589 305.241 C 224.914 305.289,225.133 305.254,225.078 305.164 C 224.979 305.003,224.000 304.925,224.000 305.077 M276.546 305.144 C 276.986 305.225,276.992 305.276,277.052 309.013 L 277.113 312.800 277.107 308.950 L 277.100 305.100 276.600 305.081 C 276.174 305.064,276.166 305.074,276.546 305.144 M135.260 307.000 C 135.260 307.605,135.297 307.853,135.343 307.550 C 135.389 307.248,135.389 306.752,135.343 306.450 C 135.297 306.147,135.260 306.395,135.260 307.000 M199.860 307.000 C 199.860 307.605,199.897 307.853,199.943 307.550 C 199.989 307.248,199.989 306.752,199.943 306.450 C 199.897 306.147,199.860 306.395,199.860 307.000 M92.350 306.746 C 92.817 306.789,93.583 306.789,94.050 306.746 C 94.517 306.704,94.135 306.670,93.200 306.670 C 92.265 306.670,91.883 306.704,92.350 306.746 M282.480 306.881 C 282.420 307.035,282.401 307.463,282.436 307.831 L 282.500 308.500 283.800 308.514 L 285.100 308.527 283.850 308.455 L 282.600 308.382 282.600 307.599 L 282.600 306.817 284.150 306.749 L 285.700 306.680 284.144 306.640 C 282.964 306.610,282.561 306.668,282.480 306.881 M263.476 309.000 C 263.476 310.265,263.508 310.783,263.548 310.150 C 263.587 309.518,263.587 308.483,263.548 307.850 C 263.508 307.218,263.476 307.735,263.476 309.000 M106.862 309.300 C 106.863 309.960,106.900 310.206,106.945 309.846 C 106.989 309.487,106.989 308.947,106.943 308.646 C 106.897 308.346,106.861 308.640,106.862 309.300 M159.260 309.200 C 159.260 309.805,159.297 310.053,159.343 309.750 C 159.389 309.447,159.389 308.953,159.343 308.650 C 159.297 308.348,159.260 308.595,159.260 309.200 M160.276 310.500 C 160.277 311.820,160.309 312.334,160.348 311.642 C 160.387 310.950,160.387 309.870,160.348 309.242 C 160.308 308.614,160.276 309.180,160.276 310.500 M182.660 309.200 C 182.660 309.805,182.697 310.053,182.743 309.750 C 182.789 309.447,182.789 308.953,182.743 308.650 C 182.697 308.348,182.660 308.595,182.660 309.200 M219.070 309.800 C 219.070 310.735,219.104 311.118,219.146 310.650 C 219.189 310.183,219.189 309.418,219.146 308.950 C 219.104 308.483,219.070 308.865,219.070 309.800 M274.673 310.100 C 274.674 311.200,274.707 311.624,274.748 311.043 C 274.788 310.462,274.788 309.562,274.747 309.043 C 274.706 308.524,274.673 309.000,274.673 310.100 M297.675 310.300 C 297.675 311.510,297.708 311.979,297.748 311.343 C 297.788 310.706,297.787 309.716,297.747 309.143 C 297.707 308.569,297.674 309.090,297.675 310.300 M92.346 308.544 C 92.701 308.589,93.331 308.589,93.746 308.546 C 94.160 308.503,93.870 308.467,93.100 308.466 C 92.330 308.465,91.990 308.500,92.346 308.544 M135.272 311.000 C 135.272 312.045,135.306 312.473,135.347 311.950 C 135.388 311.428,135.388 310.572,135.347 310.050 C 135.306 309.528,135.272 309.955,135.272 311.000 M199.872 311.000 C 199.872 312.045,199.906 312.473,199.947 311.950 C 199.988 311.428,199.988 310.572,199.947 310.050 C 199.906 309.528,199.872 309.955,199.872 311.000 M110.270 311.200 C 110.270 312.135,110.304 312.518,110.346 312.050 C 110.389 311.582,110.389 310.818,110.346 310.350 C 110.304 309.882,110.270 310.265,110.270 311.200 M186.070 311.200 C 186.070 312.135,186.104 312.518,186.146 312.050 C 186.189 311.582,186.189 310.818,186.146 310.350 C 186.104 309.882,186.070 310.265,186.070 311.200 M301.069 311.100 C 301.069 311.980,301.104 312.315,301.147 311.845 C 301.189 311.374,301.188 310.654,301.145 310.245 C 301.102 309.835,301.068 310.220,301.069 311.100 M282.457 310.700 C 282.459 311.250,282.498 311.451,282.544 311.147 C 282.589 310.843,282.588 310.393,282.541 310.147 C 282.493 309.901,282.456 310.150,282.457 310.700 M302.466 311.500 C 302.467 312.270,302.503 312.560,302.546 312.146 C 302.589 311.731,302.589 311.101,302.544 310.746 C 302.500 310.390,302.465 310.730,302.466 311.500 M190.857 311.500 C 190.859 312.050,190.898 312.251,190.944 311.947 C 190.989 311.643,190.988 311.193,190.941 310.947 C 190.893 310.701,190.856 310.950,190.857 311.500 M242.862 311.700 C 242.863 312.360,242.900 312.606,242.945 312.246 C 242.989 311.887,242.989 311.347,242.943 311.046 C 242.897 310.746,242.861 311.040,242.862 311.700 M122.846 313.200 C 122.846 313.585,122.888 313.743,122.938 313.550 C 122.988 313.358,122.988 313.043,122.938 312.850 C 122.888 312.658,122.846 312.815,122.846 313.200 M121.457 313.700 C 121.459 314.250,121.498 314.451,121.544 314.147 C 121.589 313.843,121.588 313.393,121.541 313.147 C 121.493 312.901,121.456 313.150,121.457 313.700 " stroke="none" fill="#94a4ab" fill-rule="evenodd"></path><path id="path3" d="M163.650 112.950 C 172.093 112.979,185.908 112.979,194.350 112.950 C 202.793 112.921,195.885 112.897,179.000 112.897 C 162.115 112.897,155.208 112.921,163.650 112.950 M227.765 112.950 C 232.201 112.980,239.401 112.980,243.765 112.950 C 248.129 112.920,244.500 112.895,235.700 112.895 C 226.900 112.895,223.329 112.920,227.765 112.950 M167.150 126.748 C 167.838 126.787,168.963 126.787,169.650 126.748 C 170.338 126.709,169.775 126.677,168.400 126.677 C 167.025 126.677,166.463 126.709,167.150 126.748 M227.765 140.950 C 232.201 140.980,239.401 140.980,243.765 140.950 C 248.129 140.920,244.500 140.895,235.700 140.895 C 226.900 140.895,223.329 140.920,227.765 140.950 M161.964 163.150 C 165.520 163.181,171.280 163.181,174.764 163.150 C 178.249 163.119,175.340 163.094,168.300 163.094 C 161.260 163.094,158.409 163.119,161.964 163.150 M140.243 179.546 L 141.985 179.615 142.055 181.457 L 142.125 183.300 142.113 181.400 L 142.100 179.500 140.300 179.489 L 138.500 179.478 140.243 179.546 M198.450 179.550 C 200.513 179.582,203.888 179.582,205.950 179.550 C 208.013 179.517,206.325 179.491,202.200 179.491 C 198.075 179.491,196.388 179.517,198.450 179.550 M214.154 179.545 C 214.513 179.589,215.053 179.589,215.354 179.543 C 215.654 179.497,215.360 179.461,214.700 179.462 C 214.040 179.463,213.794 179.500,214.154 179.545 M227.765 179.550 C 232.201 179.580,239.401 179.580,243.765 179.550 C 248.129 179.520,244.500 179.495,235.700 179.495 C 226.900 179.495,223.329 179.520,227.765 179.550 M256.959 179.549 C 257.872 179.586,259.312 179.586,260.159 179.548 C 261.007 179.511,260.260 179.481,258.500 179.481 C 256.740 179.481,256.047 179.512,256.959 179.549 M161.964 190.550 C 165.520 190.581,171.280 190.581,174.764 190.550 C 178.249 190.519,175.340 190.494,168.300 190.494 C 161.260 190.494,158.409 190.519,161.964 190.550 M95.664 223.550 C 98.284 223.581,102.514 223.581,105.064 223.550 C 107.614 223.518,105.470 223.492,100.300 223.492 C 95.130 223.492,93.044 223.518,95.664 223.550 M197.650 223.546 C 198.063 223.589,198.738 223.589,199.150 223.546 C 199.563 223.503,199.225 223.467,198.400 223.467 C 197.575 223.467,197.238 223.503,197.650 223.546 M299.946 223.544 C 300.301 223.589,300.931 223.589,301.346 223.546 C 301.760 223.503,301.470 223.467,300.700 223.466 C 299.930 223.465,299.590 223.500,299.946 223.544 M96.092 237.600 C 96.092 242.275,96.118 244.188,96.150 241.850 C 96.182 239.513,96.182 235.688,96.150 233.350 C 96.118 231.013,96.092 232.925,96.092 237.600 M206.462 241.500 C 206.463 242.160,206.500 242.406,206.545 242.046 C 206.589 241.687,206.589 241.147,206.543 240.846 C 206.497 240.546,206.461 240.840,206.462 241.500 M191.860 241.600 C 191.860 242.205,191.897 242.453,191.943 242.150 C 191.989 241.847,191.989 241.353,191.943 241.050 C 191.897 240.748,191.860 240.995,191.860 241.600 M195.493 254.800 C 195.493 260.575,195.519 262.938,195.550 260.050 C 195.581 257.162,195.581 252.437,195.550 249.550 C 195.519 246.663,195.493 249.025,195.493 254.800 M96.097 261.950 L 96.100 271.300 102.800 271.304 L 109.500 271.308 102.852 271.251 L 96.204 271.195 96.149 261.897 L 96.094 252.600 96.097 261.950 M222.450 276.538 C 222.643 276.588,222.957 276.588,223.150 276.538 C 223.343 276.488,223.185 276.446,222.800 276.446 C 222.415 276.446,222.257 276.488,222.450 276.538 M174.079 309.000 C 174.079 310.595,174.111 311.248,174.149 310.450 C 174.186 309.653,174.186 308.348,174.149 307.550 C 174.111 306.752,174.079 307.405,174.079 309.000 M232.539 309.140 C 232.670 309.233,232.813 309.847,232.856 310.505 L 232.935 311.700 232.918 310.416 C 232.904 309.454,232.825 309.111,232.600 309.051 C 232.390 308.994,232.372 309.020,232.539 309.140 M159.250 310.900 C 159.253 311.340,159.294 311.496,159.341 311.248 C 159.389 310.999,159.387 310.639,159.337 310.448 C 159.287 310.256,159.248 310.460,159.250 310.900 M182.650 310.900 C 182.653 311.340,182.694 311.496,182.741 311.248 C 182.789 310.999,182.787 310.639,182.737 310.448 C 182.687 310.256,182.648 310.460,182.650 310.900 M106.854 311.200 C 106.854 311.695,106.893 311.898,106.941 311.650 C 106.989 311.403,106.989 310.998,106.941 310.750 C 106.893 310.503,106.854 310.705,106.854 311.200 " stroke="none" fill="#abb4bc" fill-rule="evenodd"></path><path id="path4" d="M169.050 85.350 C 186.073 85.378,213.928 85.378,230.950 85.350 C 247.973 85.322,234.045 85.299,200.000 85.299 C 165.955 85.299,152.028 85.322,169.050 85.350 M189.434 95.350 C 201.168 95.378,220.428 95.378,232.234 95.350 C 244.040 95.321,234.440 95.298,210.900 95.298 C 187.360 95.298,177.700 95.321,189.434 95.350 M219.695 126.900 C 219.695 134.710,219.720 137.934,219.750 134.065 C 219.780 130.195,219.780 123.805,219.750 119.865 C 219.720 115.924,219.695 119.090,219.695 126.900 M148.272 114.800 C 148.272 115.845,148.306 116.272,148.347 115.750 C 148.388 115.228,148.388 114.373,148.347 113.850 C 148.306 113.328,148.272 113.755,148.272 114.800 M251.695 126.900 C 251.695 134.600,251.720 137.721,251.750 133.835 C 251.780 129.950,251.780 123.650,251.750 119.835 C 251.720 116.021,251.695 119.200,251.695 126.900 M159.450 118.550 C 164.373 118.580,172.428 118.580,177.350 118.550 C 182.273 118.520,178.245 118.496,168.400 118.496 C 158.555 118.496,154.528 118.520,159.450 118.550 M148.477 126.800 C 148.477 128.175,148.509 128.738,148.548 128.050 C 148.587 127.363,148.587 126.238,148.548 125.550 C 148.509 124.863,148.477 125.425,148.477 126.800 M188.276 126.900 C 188.277 128.220,188.309 128.734,188.348 128.042 C 188.387 127.350,188.387 126.270,188.348 125.642 C 188.308 125.014,188.276 125.580,188.276 126.900 M167.058 125.548 C 167.805 125.587,168.975 125.587,169.658 125.548 C 170.341 125.509,169.730 125.477,168.300 125.478 C 166.870 125.478,166.311 125.510,167.058 125.548 M148.493 133.049 C 148.440 133.187,148.421 146.305,148.449 162.200 L 148.501 191.100 148.551 162.050 L 148.600 133.000 168.399 133.000 L 188.199 133.000 188.250 161.950 L 188.302 190.900 188.301 161.900 L 188.300 132.900 168.444 132.849 C 152.665 132.809,148.569 132.850,148.493 133.049 M181.093 152.700 C 181.093 158.530,181.119 160.886,181.150 157.936 C 181.181 154.986,181.181 150.216,181.150 147.336 C 181.119 144.456,181.093 146.870,181.093 152.700 M219.692 150.049 C 219.640 150.187,219.620 156.915,219.650 165.000 L 219.703 179.700 219.751 164.850 L 219.800 150.000 235.699 150.000 L 251.597 150.000 251.651 164.700 L 251.704 179.400 251.702 164.650 L 251.700 149.900 235.744 149.849 C 223.085 149.808,219.769 149.850,219.692 150.049 M181.092 181.800 C 181.092 186.695,181.118 188.698,181.150 186.250 C 181.182 183.803,181.182 179.798,181.150 177.350 C 181.118 174.903,181.092 176.905,181.092 181.800 M148.489 194.857 C 148.434 195.000,148.417 196.552,148.450 198.308 L 148.511 201.500 148.555 198.150 L 148.600 194.800 168.395 194.800 L 188.190 194.800 188.253 198.000 L 188.315 201.200 188.308 197.950 L 188.300 194.700 168.444 194.649 C 152.339 194.608,148.569 194.647,148.489 194.857 M196.046 226.600 C 196.046 226.985,196.088 227.143,196.138 226.950 C 196.188 226.757,196.188 226.443,196.138 226.250 C 196.088 226.058,196.046 226.215,196.046 226.600 M195.646 234.800 C 195.646 235.185,195.688 235.343,195.738 235.150 C 195.788 234.957,195.788 234.643,195.738 234.450 C 195.688 234.257,195.646 234.415,195.646 234.800 M276.650 238.938 C 276.843 238.988,277.157 238.988,277.350 238.938 C 277.543 238.888,277.385 238.846,277.000 238.846 C 276.615 238.846,276.457 238.888,276.650 238.938 M278.250 238.938 C 278.443 238.988,278.757 238.988,278.950 238.938 C 279.143 238.888,278.985 238.846,278.600 238.846 C 278.215 238.846,278.058 238.888,278.250 238.938 M296.300 239.200 L 294.900 239.329 296.238 239.365 C 296.974 239.384,297.632 239.310,297.700 239.200 C 297.768 239.090,297.796 239.016,297.762 239.035 C 297.728 239.055,297.070 239.129,296.300 239.200 M116.450 239.347 C 116.972 239.388,117.828 239.388,118.350 239.347 C 118.873 239.306,118.445 239.272,117.400 239.272 C 116.355 239.272,115.928 239.306,116.450 239.347 M131.350 239.346 C 131.817 239.389,132.583 239.389,133.050 239.346 C 133.518 239.304,133.135 239.270,132.200 239.270 C 131.265 239.270,130.883 239.304,131.350 239.346 M167.050 239.338 C 167.243 239.388,167.558 239.388,167.750 239.338 C 167.942 239.288,167.785 239.246,167.400 239.246 C 167.015 239.246,166.858 239.288,167.050 239.338 M193.146 239.344 C 193.501 239.389,194.131 239.389,194.546 239.346 C 194.960 239.303,194.670 239.267,193.900 239.266 C 193.130 239.265,192.790 239.300,193.146 239.344 M202.058 239.348 C 202.805 239.387,203.975 239.387,204.658 239.348 C 205.341 239.309,204.730 239.277,203.300 239.278 C 201.870 239.278,201.311 239.310,202.058 239.348 M304.458 239.348 C 305.205 239.387,306.375 239.387,307.058 239.348 C 307.741 239.309,307.130 239.277,305.700 239.278 C 304.270 239.278,303.711 239.310,304.458 239.348 M294.267 241.600 C 294.267 242.425,294.303 242.763,294.346 242.350 C 294.389 241.938,294.389 241.263,294.346 240.850 C 294.303 240.438,294.267 240.775,294.267 241.600 M143.887 241.250 L 143.300 241.900 143.950 241.313 C 144.556 240.765,144.692 240.600,144.537 240.600 C 144.503 240.600,144.210 240.893,143.887 241.250 M297.893 255.500 C 297.893 261.550,297.919 264.054,297.950 261.064 C 297.981 258.074,297.981 253.124,297.950 250.064 C 297.919 247.004,297.893 249.450,297.893 255.500 M107.870 249.200 C 107.870 250.135,107.904 250.518,107.946 250.050 C 107.989 249.582,107.989 248.818,107.946 248.350 C 107.904 247.882,107.870 248.265,107.870 249.200 M171.093 263.200 C 171.093 269.305,171.119 271.803,171.150 268.750 C 171.181 265.697,171.181 260.703,171.150 257.650 C 171.119 254.597,171.093 257.095,171.093 263.200 M159.050 254.100 C 159.053 254.540,159.094 254.696,159.141 254.448 C 159.189 254.199,159.187 253.839,159.137 253.648 C 159.087 253.456,159.048 253.660,159.050 254.100 M267.250 254.700 C 267.253 255.140,267.294 255.296,267.341 255.048 C 267.389 254.799,267.387 254.439,267.337 254.248 C 267.287 254.056,267.248 254.260,267.250 254.700 M272.479 257.600 C 272.479 259.195,272.511 259.848,272.549 259.050 C 272.586 258.252,272.586 256.947,272.549 256.150 C 272.511 255.353,272.479 256.005,272.479 257.600 M147.462 255.550 C 148.871 255.584,151.121 255.584,152.462 255.549 C 153.803 255.515,152.650 255.487,149.900 255.487 C 147.150 255.487,146.053 255.515,147.462 255.550 M245.474 257.600 C 245.474 258.755,245.507 259.228,245.547 258.650 C 245.588 258.072,245.588 257.127,245.547 256.550 C 245.507 255.972,245.474 256.445,245.474 257.600 M148.463 258.750 C 150.312 258.783,153.282 258.783,155.063 258.750 C 156.843 258.716,155.330 258.689,151.700 258.690 C 148.070 258.690,146.613 258.717,148.463 258.750 M144.864 260.200 C 144.864 260.915,144.900 261.207,144.945 260.850 C 144.989 260.493,144.989 259.907,144.945 259.550 C 144.900 259.193,144.864 259.485,144.864 260.200 M245.491 270.450 C 245.439 270.588,245.420 274.480,245.450 279.100 L 245.505 287.500 245.552 278.938 C 245.588 272.528,245.658 270.412,245.831 270.519 C 245.974 270.608,246.008 270.574,245.919 270.431 C 245.735 270.133,245.611 270.139,245.491 270.450 M110.269 273.700 C 110.269 274.580,110.304 274.915,110.347 274.445 C 110.389 273.974,110.388 273.254,110.345 272.845 C 110.302 272.435,110.268 272.820,110.269 273.700 M143.400 273.263 C 143.400 273.297,143.692 273.590,144.050 273.913 L 144.700 274.500 144.113 273.850 C 143.565 273.244,143.400 273.108,143.400 273.263 M225.069 306.900 C 225.069 307.780,225.104 308.115,225.147 307.645 C 225.189 307.174,225.188 306.454,225.145 306.045 C 225.102 305.635,225.068 306.020,225.069 306.900 M255.493 309.200 L 255.500 312.900 256.000 312.919 C 256.426 312.936,256.434 312.926,256.054 312.856 C 255.616 312.776,255.608 312.718,255.548 309.137 L 255.487 305.500 255.493 309.200 M281.093 309.200 L 281.100 312.900 283.500 312.900 L 285.900 312.900 285.929 312.300 C 285.956 311.730,285.953 311.727,285.866 312.250 L 285.773 312.800 283.491 312.800 L 281.209 312.800 281.148 309.150 L 281.087 305.500 281.093 309.200 M113.940 305.943 C 114.309 306.012,114.392 306.183,114.457 307.013 L 114.535 308.002 114.517 306.951 C 114.501 305.973,114.465 305.899,114.000 305.881 C 113.586 305.865,113.575 305.875,113.940 305.943 M177.740 305.943 C 178.109 306.012,178.192 306.183,178.257 307.013 L 178.335 308.002 178.317 306.951 C 178.301 305.973,178.265 305.899,177.800 305.881 C 177.386 305.865,177.375 305.875,177.740 305.943 M304.740 305.943 C 305.109 306.012,305.192 306.183,305.257 307.013 L 305.335 308.002 305.317 306.951 C 305.301 305.973,305.265 305.899,304.800 305.881 C 304.386 305.865,304.375 305.875,304.740 305.943 M172.876 308.200 C 172.876 309.465,172.908 309.983,172.948 309.350 C 172.987 308.718,172.987 307.683,172.948 307.050 C 172.908 306.418,172.876 306.935,172.876 308.200 M216.480 309.000 C 216.480 310.705,216.511 311.403,216.549 310.550 C 216.586 309.697,216.586 308.303,216.549 307.450 C 216.511 306.598,216.480 307.295,216.480 309.000 M166.874 308.600 C 166.874 309.755,166.907 310.228,166.947 309.650 C 166.988 309.072,166.988 308.128,166.947 307.550 C 166.907 306.973,166.874 307.445,166.874 308.600 M223.876 309.000 C 223.876 310.265,223.908 310.783,223.948 310.150 C 223.987 309.518,223.987 308.483,223.948 307.850 C 223.908 307.218,223.876 307.735,223.876 309.000 M90.276 309.300 C 90.277 310.620,90.309 311.134,90.348 310.442 C 90.387 309.750,90.387 308.670,90.348 308.042 C 90.308 307.414,90.276 307.980,90.276 309.300 M210.075 309.100 C 210.075 310.310,210.108 310.779,210.148 310.143 C 210.188 309.506,210.187 308.516,210.147 307.943 C 210.107 307.369,210.074 307.890,210.075 309.100 M112.467 308.598 C 112.489 308.936,112.628 309.109,112.900 309.136 C 113.188 309.166,113.205 309.149,112.962 309.076 C 112.777 309.021,112.582 308.778,112.530 308.538 C 112.450 308.171,112.440 308.181,112.467 308.598 M133.267 308.598 C 133.289 308.936,133.428 309.109,133.700 309.136 C 133.988 309.166,134.005 309.149,133.762 309.076 C 133.577 309.021,133.382 308.778,133.330 308.538 C 133.250 308.171,133.240 308.181,133.267 308.598 M154.272 310.000 C 154.272 311.045,154.306 311.473,154.347 310.950 C 154.388 310.428,154.388 309.572,154.347 309.050 C 154.306 308.528,154.272 308.955,154.272 310.000 M180.290 310.550 L 180.300 312.900 180.852 312.924 C 181.346 312.946,181.352 312.939,180.909 312.862 C 180.419 312.776,180.412 312.744,180.346 310.487 L 180.280 308.199 180.290 310.550 M197.867 308.598 C 197.889 308.936,198.028 309.109,198.300 309.136 C 198.588 309.166,198.605 309.149,198.362 309.076 C 198.177 309.021,197.982 308.778,197.930 308.538 C 197.850 308.171,197.840 308.181,197.867 308.598 M212.357 308.548 C 212.938 308.588,213.838 308.588,214.357 308.547 C 214.876 308.506,214.400 308.473,213.300 308.473 C 212.200 308.474,211.776 308.507,212.357 308.548 M221.462 309.500 C 221.463 310.160,221.500 310.406,221.545 310.046 C 221.589 309.687,221.589 309.147,221.543 308.846 C 221.497 308.546,221.461 308.840,221.462 309.500 M249.246 309.200 C 249.246 309.585,249.288 309.743,249.338 309.550 C 249.388 309.358,249.388 309.043,249.338 308.850 C 249.288 308.658,249.246 308.815,249.246 309.200 M114.533 309.133 C 114.460 309.207,114.400 310.056,114.400 311.020 L 114.400 312.773 113.850 312.866 C 113.327 312.953,113.330 312.956,113.900 312.929 L 114.500 312.900 114.557 311.063 C 114.614 309.235,114.618 309.225,115.157 309.143 L 115.700 309.060 115.183 309.030 C 114.899 309.013,114.607 309.060,114.533 309.133 M178.333 309.133 C 178.260 309.207,178.200 310.056,178.200 311.020 L 178.200 312.773 177.650 312.866 C 177.127 312.953,177.130 312.956,177.700 312.929 L 178.300 312.900 178.357 311.063 C 178.414 309.235,178.418 309.225,178.957 309.143 L 179.500 309.060 178.983 309.030 C 178.699 309.013,178.407 309.060,178.333 309.133 M251.675 309.293 C 251.613 309.455,251.609 309.702,251.665 309.843 C 251.722 309.985,251.776 309.902,251.784 309.660 C 251.798 309.262,251.922 309.212,253.050 309.148 L 254.300 309.077 253.044 309.039 C 252.098 309.010,251.760 309.073,251.675 309.293 M303.638 309.124 C 303.823 309.179,304.018 309.422,304.070 309.662 C 304.150 310.029,304.160 310.019,304.133 309.602 C 304.111 309.264,303.972 309.091,303.700 309.064 C 303.412 309.034,303.395 309.051,303.638 309.124 M305.333 309.133 C 305.260 309.207,305.200 310.056,305.200 311.020 L 305.200 312.773 304.650 312.866 C 304.127 312.953,304.130 312.956,304.700 312.929 L 305.300 312.900 305.357 311.063 C 305.414 309.235,305.418 309.225,305.957 309.143 L 306.500 309.060 305.983 309.030 C 305.699 309.013,305.407 309.060,305.333 309.133 M93.000 309.600 L 91.500 309.728 92.938 309.764 C 93.729 309.784,94.432 309.710,94.500 309.600 C 94.568 309.490,94.596 309.416,94.562 309.436 C 94.528 309.456,93.825 309.530,93.000 309.600 M283.050 309.746 C 283.463 309.789,284.137 309.789,284.550 309.746 C 284.963 309.703,284.625 309.667,283.800 309.667 C 282.975 309.667,282.637 309.703,283.050 309.746 M195.646 310.400 C 195.646 310.785,195.688 310.943,195.738 310.750 C 195.788 310.558,195.788 310.243,195.738 310.050 C 195.688 309.858,195.646 310.015,195.646 310.400 M225.046 310.400 C 225.046 310.785,225.088 310.943,225.138 310.750 C 225.188 310.558,225.188 310.243,225.138 310.050 C 225.088 309.858,225.046 310.015,225.046 310.400 M145.437 311.537 C 145.402 312.721,145.377 312.777,144.850 312.857 L 144.300 312.940 144.856 312.970 C 145.537 313.007,145.644 312.760,145.548 311.376 L 145.474 310.300 145.437 311.537 M159.227 312.136 C 159.206 312.626,159.096 312.792,158.750 312.859 L 158.300 312.946 158.756 312.973 C 159.270 313.003,159.474 312.652,159.343 311.965 C 159.274 311.603,159.248 311.641,159.227 312.136 M182.650 312.250 C 182.702 312.920,183.403 313.277,183.829 312.851 C 183.940 312.740,183.779 312.702,183.420 312.754 C 182.890 312.832,182.816 312.776,182.714 312.221 L 182.600 311.600 182.650 312.250 M232.850 312.250 C 232.893 312.807,232.979 312.903,233.452 312.924 C 233.934 312.946,233.942 312.938,233.514 312.862 C 233.160 312.800,232.993 312.613,232.912 312.188 C 232.805 311.629,232.802 311.632,232.850 312.250 M106.867 312.400 C 106.893 312.798,107.013 312.905,107.452 312.924 C 107.933 312.946,107.941 312.938,107.515 312.862 C 107.213 312.809,106.988 312.608,106.930 312.338 C 106.850 311.973,106.840 311.983,106.867 312.400 M263.463 312.500 C 263.492 312.786,263.660 312.907,264.054 312.924 C 264.536 312.946,264.544 312.938,264.115 312.862 C 263.845 312.815,263.579 312.624,263.524 312.438 C 263.451 312.194,263.434 312.211,263.463 312.500 M225.000 312.587 C 225.000 312.689,224.753 312.811,224.450 312.857 L 223.900 312.940 224.426 312.970 C 224.715 312.987,225.063 312.865,225.200 312.700 C 225.372 312.493,225.380 312.400,225.224 312.400 C 225.101 312.400,225.000 312.484,225.000 312.587 M91.558 312.948 C 92.250 312.987,93.330 312.987,93.958 312.948 C 94.586 312.908,94.020 312.876,92.700 312.876 C 91.380 312.877,90.866 312.909,91.558 312.948 " stroke="none" fill="#b4bcc0" fill-rule="evenodd"></path></g></svg>