<svg xmlns="http://www.w3.org/2000/svg" width="400" height="400" fill-rule="evenodd" xmlns:v="https://vecta.io/nano"><path d="M136.376 85.675c-1.879.674-3.338 2.175-3.877 3.992-.485 1.632-.449 87.824.038 89.329.886 2.746 3.008 4.043 6.813 4.165l2.65.085v-1.823-1.823h-2.053c-2.375 0-3.187-.303-3.782-1.412-.35-.653-.365-2.263-.365-38.735V101.4H200h64.2v38.053l-.365 38.735c-.665 1.238-1.29 1.412-5.082 1.412H255.4v-16.7-16.7h-19.7H216v16.7 16.7h-1.3-1.3v-35.2-35.2H179h-34.4v4.822c0 4.613.015 4.805.35 4.42.559-.644 2.022-1.604 2.654-1.743l.581-.128.058-1.835.057-1.836 30.75-.051 30.75-.05v33.4V179.6h-7.5-7.5v1.803 1.803l34.25-.053 34.25-.053 1-.533c1.199-.638 2.287-1.741 2.929-2.967l.471-.9.052-43.993c.057-48.926.163-45.167-1.318-47.04-.429-.543-1.241-1.23-1.85-1.567l-1.084-.6-63.2-.042c-51.335-.034-63.336.007-63.924.217m126.586 3.73c1.069.652 1.238 1.346 1.238 5.089V97.8H200h-64.2v-3.306c0-3.743.169-4.437 1.238-5.089 1.046-.638 124.878-.638 125.924 0m-122.091 2.18c-.829.505-1.19 1.548-.872 2.512.671 2.034 3.615 2.032 4.177-.004s-1.508-3.604-3.305-2.508m6.124-.044c-1.036.713-1.358 1.682-.914 2.745.803 1.921 3.534 1.744 4.137-.268.564-1.881-1.636-3.572-3.223-2.477m6.305-.15c-1.425.589-1.809 2.531-.715 3.624 1.103 1.104 2.998.675 3.616-.819.714-1.723-1.153-3.528-2.901-2.805m14.104.466c-1.054.533-1.278 1.787-.486 2.728l.518.615h43.391 43.391l.491-.491c.709-.709.67-1.76-.094-2.524l-.584-.585-43.066.003-43.561.254M216 126.9v17.7h19.7 19.7v-17.7-17.7h-19.7H216v17.7m35.7 0v14l-16.05.051-16.05.051V126.9v-14.102l16.05.051 16.05.051v14m-103.034-7.883c-1.325.511-2.563 1.717-3.236 3.152l-.53 1.131v39.5l.381 40.488c.484 1.254 1.716 2.596 3.011 3.28l1.008.532h19.1 19.1l1.013-.534a7.19 7.19 0 0 0 2.96-3.142l.427-.924v-39.6-39.6l-.522-1.113c-.618-1.317-1.673-2.401-2.953-3.031l-.925-.456-18.9-.041c-18.461-.04-18.924-.032-19.934.358m38.426 3.578c.985.609 1.175 1.219 1.266 4.055l.082 2.55H168.4h-20.039l.071-2.65c.078-2.881.273-3.467 1.347-4.051.954-.519 36.466-.427 37.313.096m-21.456 3.455c.063.441.116.45 2.764.45s2.701-.009 2.764-.45c.064-.448.054-.45-2.764-.45s-2.828.002-2.764.45m22.715 35.9l.05 29.05h-1.8-1.801v-10.901-10.901l-16.45.051-16.45.051-.052 10.85-.051 10.85h-1.699-1.698v-28.967l.134-29.101c.074-.073 9.052-.111 19.95-.083l19.816.051.051 29.05M151.8 152.7v14.1h16.5 16.5v-14.1-14.1h-16.5-16.5v14.1m29.4 0v10.5h-12.8-12.8v-10.5-10.5h12.8 12.8v10.5m70.5 12v14.8l-16.05.051-16.05.051v-14.767l.135-14.903c.074-.074 7.296-.111 16.05-.083l15.915.051v14.8m-70.5 17.1v8.8h-12.8-12.8v-8.8-8.8h12.8 12.8v8.8m7.155 15.959c.063 3.477-.094 4.316-.965 5.151l-.616.59h-18.371-18.371l-.542-.5c-.951-.878-1.09-1.511-1.09-4.96 0-1.745.06-3.234.134-3.308s9.052-.111 19.95-.083l19.816.051.055 3.059m-21.495-.767c-1.805 1.1-1.645 4 .271 4.91 2.459 1.166 4.852-1.241 3.781-3.804-.579-1.386-2.662-1.954-4.052-1.106m54.222 26.291c-5.383 1.232-8.887 6.596-8.88 13.593.006 6.49 2.001 9.618 9.255 14.506 6.808 4.587 7.956 6.206 7.953 11.218-.004 9.181-7.353 11.957-13.962 5.275-2.272-2.297-2.344-2.33-3.319-1.474-1.607 1.412-1.732 2.824-.405 4.589 4.716 6.273 13.965 7.347 19.076 2.215 5.963-5.987 5.43-17.924-1.046-23.449-.58-.495-2.764-2.025-4.854-3.402-6.242-4.112-7.891-6.815-7.132-11.694 1.069-6.879 7.532-8.818 12.749-3.825 1.394 1.335 1.437 1.347 2.276.64 4.472-3.762-4.29-9.891-11.711-8.192m-130.677.708c-.372.695-.181 51.576.195 51.813.527.333 19.104.253 19.383-.084.151-.181.212-.968.174-2.25l-.057-1.97-7.05-.053-7.05-.052.003-9.448.123-9.897.121-.45h5.552c6.562 0 6.037.232 5.958-2.629l-.057-2.071-5.727-.053-5.728-.053-.12-.447c-.157-.588-.161-17.421-.004-17.831.108-.28.904-.316 6.905-.316h6.784l.195-.513c.258-.679.25-3.211-.012-3.7-.326-.609-19.262-.605-19.588.004m106.007.076c-.097.258-.325 3.61-.506 7.45-.392 8.337-.273 7.883-2.062 7.883-1.763 0-1.844.096-1.844 2.2 0 2.098.084 2.2 1.816 2.2 1.902 0 1.752-1.049 1.838 12.807.068 11.058.112 12.433.438 13.689 1.165 4.495 2.593 5.546 7.697 5.668 3.672.087 3.611.123 3.611-2.088 0-1.974-.123-2.076-2.505-2.076-4.355 0-4.395-.145-4.395-16v-11.9l2.687-.056c3.273-.068 3.213-.028 3.213-2.152 0-2.442.189-2.292-2.881-2.292-1.786 0-2.717-.078-2.879-.24-.178-.178-.24-2.123-.24-7.513 0-4.631-.075-7.414-.207-7.66-.344-.644-3.531-.576-3.781.08m102.388-.068c-.118.222-.373 3.635-.571 7.662-.414 8.404-.232 7.739-2.119 7.739-1.738 0-1.71-.037-1.71 2.276 0 2.02.091 2.124 1.845 2.124 1.871 0 1.754-.833 1.762 12.563.008 13.904.206 15.522 2.154 17.679 1.385 1.532 2.304 1.832 5.839 1.908 3.767.081 3.675.128 3.768-1.908.097-2.142-.014-2.242-2.492-2.242-4.371 0-4.51-.522-4.431-16.7l.055-11.2 2.7-.054c3.217-.063 3.2-.052 3.2-2.197 0-2.283.045-2.249-2.967-2.249-1.719 0-2.631-.078-2.793-.24-.178-.178-.24-2.095-.24-7.387 0-4.16-.082-7.361-.195-7.66-.269-.708-3.436-.802-3.805-.114m-150.626 14.992c-5.636 1.029-8.224 6.799-8.256 18.409-.034 12.101 2.698 17.805 9.016 18.822 5.804.935 9.866-2.891 9.866-9.292 0-2.024-.091-2.13-1.833-2.13-1.572 0-1.642.071-1.843 1.868-.413 3.674-1.894 5.552-4.396 5.574-3.437.031-5.346-3.559-5.842-10.991-.195-2.904-.866-2.651 7.031-2.651h6.669l.257-.45c.649-1.139.058-8.796-.945-12.246-1.542-5.3-5.019-7.772-9.724-6.913m28.496.041c-2.955.334-5.102 2.296-6.272 5.731-.737 2.166-.816 2.051-1.288-1.872-.399-3.328-.475-3.491-1.61-3.491-.793 0-.935.066-1.105.513-.366.963-.255 35.113.116 35.642.339.484 3.42.672 4.089.249.259-.163.315-1.873.411-12.647.123-13.756.122-13.749 1.512-16.688 1.801-3.807 5.361-4.71 6.789-1.721.934 1.955.95 2.198 1.072 16.772.096 11.43.164 13.877.396 14.156.502.605 4.027.382 4.371-.276.417-.798.232-25.595-.211-28.2-1.118-6.575-3.299-8.729-8.27-8.168m74.49-.007c-2.703.4-5.002 2.773-6.274 6.475-.889 2.59-.844 2.649-1.496-1.975-.23-1.637-.493-3.17-.584-3.408-.391-1.03-1.498-1.21-1.948-.317-.34.675-.377 47.998-.038 48.97l.219.63h1.986c2.58 0 2.375.863 2.375-10.001 0-8.355.105-10.147.52-8.862 3.039 9.423 12.247 6.984 14.484-3.837 3.066-14.83-1.603-28.808-9.244-27.675m25.14-.004c-6.671.577-9.906 8.629-8.911 22.179.755 10.283 3.38 14.519 9.363 15.109 7.835.772 11.309-4.93 11.337-18.609.03-14.365-3.164-19.425-11.789-18.679m-160.976.689c-.244.634-.085 1.551 3.073 17.771 4.053 20.82 3.284 18.519 6.189 18.519 2.174 0 2.653-.2 2.995-1.251.427-1.315 6.469-33.086 6.494-34.149l.025-1.1-1.841-.057c-2.489-.078-2.076-1.336-4.831 14.726-2.174 12.682-2.48 14.266-2.702 14.014-.04-.046-1.116-6.272-2.391-13.837l-2.578-14.3c-.328-.686-4.187-.978-4.433-.336m36.373 3.672c1.701.96 2.796 4.439 3.043 9.668l.12 2.55h-4.91-4.91l-.081-.95c-.22-2.549.594-7.18 1.616-9.197 1.215-2.396 3.155-3.181 5.122-2.071m100.616.026c2.528 1.562 3.573 5.734 3.581 14.292.01 10.23-1.481 14.567-5.009 14.567-2.855 0-4.771-4.166-5.304-11.533-.814-11.236 2.555-19.907 6.732-17.326m27.158-.133c2.583 1.079 3.419 4.53 3.425 14.125.007 10.821-.982 14.183-4.354 14.814-3.752.703-5.446-2.211-5.961-10.249-.896-14.001 1.641-20.883 6.89-18.69M174.2 309v3.8h.6.6V309v-3.8h-.6-.6v3.8m49.7 0v3.8h.533c.294 0 .565-.095.604-.212.046-.137.282-.102.667.099 1.643.857 3.296-.29 3.296-2.287 0-1.989-1.616-2.918-3.65-2.098-.316.127-.35-.016-.35-1.481V305.2h-.55-.55v3.8m10.047-3.662c-.474.124-.947 1.086-.947 1.929 0 .518-.098.712-.4.791-.22.057-.4.256-.4.442s.18.385.4.442c.364.095.4.273.4 1.981v1.877h.6.6v-1.9-1.9h.514c.692 0 .625-.866-.075-.965-.654-.093-.574-1.501.091-1.596.368-.053.657-.525.667-1.089.003-.159-.858-.166-1.45-.012M255.6 309v3.8h.6.6V309v-3.8h-.6-.6v3.8m8-.013v3.813h.6c.33 0 .6-.089.6-.197s.305-.051.678.127c1.874.894 3.714-.93 3.129-3.103-.387-1.437-1.916-2.034-3.448-1.344-.304.136-.348-.021-.4-1.415-.058-1.545-.067-1.569-.609-1.631l-.55-.064v3.814m12.2.013v3.8h.6.6V309v-3.8h-.6-.6v3.8m-185.42-3.457c-.01.087-.033 1.754-.05 3.707l-.03 3.55h2.35H95v-.6-.6h-1.7-1.7v-.991-.991l1.45-.059c1.297-.053 1.45-.101 1.45-.459s-.153-.406-1.45-.459l-1.45-.059v-.983-.983l1.65-.058c1.611-.057 1.65-.07 1.65-.558v-.5l-2.25-.057c-1.237-.031-2.259.014-2.27.1m26.975.169c-1.482.804-1.254 2.621.437 3.484 2.112 1.078 1.91 2.748-.311 2.571-1.417-.112-1.592.911-.192 1.121 3.305.495 4.623-2.479 1.812-4.087-1.816-1.04-1.702-2.332.2-2.249.824.036.899 0 .899-.435 0-.765-1.729-1.011-2.845-.405m25.587 2.027c.967 2.005 1.15 2.565 1.215 3.711.075 1.341.08 1.35.659 1.35s.584-.018.584-1.103c0-.949.168-1.438 1.2-3.497 1.415-2.824 1.419-2.843.468-2.762-.714.06-.749.103-1.423 1.722-.792 1.9-.737 1.905-1.577-.125-.634-1.532-.637-1.535-1.449-1.596l-.815-.062 1.138 2.362m24.03-2.189c-.156.827.124 5.649.354 6.097.855 1.664 4.143 1.645 5.132-.031.236-.399.325-1.214.361-3.322l.047-2.794-.633-.063-.633-.062V308c0 2.921-.104 3.271-1.06 3.587-1.819.6-2.34-.195-2.34-3.574V305.4h-.6c-.33 0-.613.068-.628.15m43.128 3.55v3.7h.65.65v-1.5-1.5h1.9 1.9v1.5 1.5h.65.65l-.041-3.65-.04-3.65-.61-.063-.609-.062v1.612 1.613h-1.9-1.9V307v-1.6h-.65-.65v3.7m39.996-3.432c-4.455 2.018-1.555 8.541 3.11 6.995l1.094-.363.058-1.55.059-1.55h-1.309c-1.175 0-1.308.041-1.308.4 0 .325.133.4.712.4.701 0 .711.012.65.75l-.062.75-1.256.06c-1.157.055-1.301.014-1.835-.52-2.062-2.062.294-5.303 3.084-4.243.623.237 1.2-.584.735-1.049-.354-.354-3.002-.41-3.732-.08M281.2 309.1v3.7h2.3 2.3v-.6-.6h-1.7-1.7v-1-1h1.5c1.467 0 1.5-.011 1.5-.5s-.033-.5-1.5-.5h-1.5v-1-1h1.7 1.7v-.6-.6h-2.3-2.3v3.7m-100.771-3.235c-.373.45-.059.966.547.896.409-.048.524-.17.524-.561 0-.582-.687-.797-1.071-.335M113.2 307c0 .756-.073 1-.3 1-.187 0-.3.189-.3.5s.113.5.3.5c.246 0 .3.344.3 1.9v1.9h.592.593l.057-1.85.058-1.85.55-.063c.845-.098.8-1.037-.05-1.037-.587 0-.6-.022-.6-1s-.013-1-.6-1-.6.022-.6 1m20.8 0c0 .756-.073 1-.3 1-.187 0-.3.189-.3.5s.113.5.3.5c.246 0 .3.344.3 1.9v1.9h.592.593l.057-1.85.058-1.85.562-.064c.786-.091.694-.907-.112-.999-.517-.06-.55-.123-.55-1.05 0-.963-.014-.987-.6-.987s-.6.022-.6 1m43 0c0 .756-.073 1-.3 1-.187 0-.3.189-.3.5s.113.5.3.5c.246 0 .3.344.3 1.9v1.9h.592.593l.057-1.85.058-1.85.55-.063c.845-.098.8-1.037-.05-1.037-.587 0-.6-.022-.6-1s-.013-1-.6-1-.6.022-.6 1m21.6 0c0 .756-.073 1-.3 1-.187 0-.3.189-.3.5s.113.5.3.5c.246 0 .3.344.3 1.9v1.9h.592.593l.057-1.85.058-1.85.562-.064c.786-.091.694-.907-.112-.999-.517-.06-.55-.123-.55-1.05 0-.963-.014-.987-.6-.987s-.6.022-.6 1m105.463 0c.106.899.079 1-.272 1-.532 0-.544.913-.015 1.052.344.09.368.256.273 1.923l-.104 1.825h.62.62l.057-1.85.058-1.85.55-.063c.845-.098.8-1.037-.05-1.037-.587 0-.6-.022-.6-1 0-.988-.008-1-.628-1h-.628l.119 1m-208.259 1.15c.002.083.575 1.218 1.272 2.523l1.269 2.373 1.236-2.426c.984-1.93 1.176-2.449.94-2.54-.654-.251-1.002.043-1.507 1.269-.631 1.533-.588 1.535-1.369-.049-.583-1.183-1.863-1.982-1.841-1.15m6.672.232c-1.496.912-1.362 3.552.22 4.303 1.314.623 3.543.134 3.106-.682-.174-.324-.296-.367-.597-.206-.625.335-1.709.241-2.091-.181-.411-.454-.393-.467 1.636-1.208 1.36-.497 1.394-.548.948-1.412-.548-1.059-2.029-1.342-3.222-.614M107 310.4v2.4h.6.6v-1.373c0-1.541.465-2.427 1.275-2.427.762 0 .925.376.925 2.14v1.66h.6.6v-1.873c0-2.767-1.212-3.819-2.885-2.503l-.54.425-.111-.425c-.074-.282-.27-.424-.587-.424-.476 0-.477.005-.477 2.4m14.733-2.267c-.073.074-.133 1.559-.133 3.3v3.167h.6c.594 0 .6-.011.6-1.105v-1.105l.59.305c1.916.991 3.976-.791 3.398-2.939-.423-1.572-1.916-2.217-3.378-1.461-.503.26-.584.26-.684 0-.115-.3-.751-.404-.993-.162m7.018.218c-1.946 1.207-1.208 4.353 1.075 4.579 1.416.14 2.464-.697 2.701-2.158.33-2.033-1.997-3.524-3.776-2.421m20.545.313c-1.73 1.73-.511 4.512 1.869 4.27 1.643-.167 2.558-1.668 2.05-3.363-.49-1.634-2.684-2.142-3.919-.907m5.104 1.392c0 1.863.044 2.122.421 2.463.545.493 2.203.503 2.74.016.458-.414.639-.424.639-.035 0 .187.189.3.5.3h.5v-2.413-2.414l-.55.064c-.536.061-.551.098-.608 1.493-.135 3.31-2.369 3.544-2.483.26-.059-1.678-.063-1.69-.609-1.753l-.55-.064v2.083m6.133-1.923c-.073.074-.133 1.154-.133 2.4v2.267h.6.6v-1.273c0-1.414.443-2.248 1.254-2.364.318-.045.464-.221.509-.613.083-.723-.577-.754-1.271-.06l-.49.489-.122-.489c-.117-.463-.642-.661-.947-.357m19.867 2.254v2.413h.606.607l-.057-2.35-.056-2.35-.55-.063-.55-.064v2.414m2.4.026v2.414l.55-.064c.532-.061.553-.11.65-1.493.109-1.557.514-2.27 1.291-2.27.745 0 .909.385.909 2.14v1.66h.6.6l.003-1.25c.003-1.47.304-2.172 1.039-2.431.922-.324 1.158.084 1.158 2.005v1.676h.6.6v-2c0-2.7-1.192-3.708-2.847-2.406-.499.393-.503.393-.858 0-.498-.549-1.864-.534-2.58.03l-.54.425-.111-.425c-.074-.282-.27-.424-.587-.424-.476 0-.477.004-.477 2.413m10.043-2.101c-2.515 1.762-.473 5.725 2.21 4.288.62-.333.747-.35.747-.1 0 .201.2.3.606.3h.607l-.057-2.348c-.059-2.466-.381-3.109-1.08-2.153-.231.315-.285.317-.708.021-.582-.408-1.748-.412-2.325-.008m9.818.079c-1.887 1.151-1.071 4.299 1.18 4.553 1.262.142 2.461-.38 2.161-.941-.174-.324-.296-.367-.597-.206-.625.335-1.709.241-2.091-.181-.411-.454-.393-.467 1.636-1.208 1.36-.497 1.394-.548.948-1.412-.551-1.065-2.03-1.341-3.237-.605m15.272-.258c-.318.319-.139 3.816.219 4.257.507.626 1.75.739 2.698.244.587-.306.75-.33.75-.112 0 .176.222.278.606.278h.607l-.057-2.35-.056-2.35-.55-.063c-.548-.063-.55-.06-.553 1.2-.005 2-.912 3.139-2.078 2.608-.503-.229-.519-.293-.519-2.041 0-1.799-.366-2.372-1.067-1.671m19.02.18c-1.603.869-1.503 3.71.154 4.403 1.921.802 3.493-.224 3.493-2.281 0-1.977-1.889-3.076-3.647-2.122m4.789-.188c-.078.078-.142 1.162-.142 2.408v2.267h.6.6v-1.273c0-1.469.485-2.327 1.315-2.327.406 0 .485-.098.485-.6 0-.775-.618-.817-1.294-.088l-.475.513-.065-.463c-.065-.455-.724-.737-1.024-.437m16.738.555c-1.334 1.334-.82 3.622.931 4.147 2.22.665 3.972-1.532 2.89-3.625-.735-1.422-2.658-1.685-3.821-.522m12.088-.375c-2.562 1.392-.579 5.633 2.03 4.342.621-.307.802-.335.802-.122 0 .172.224.275.6.275h.6v-2.4-2.4h-.506c-.279 0-.558.133-.62.295-.1.26-.181.26-.684 0a2.35 2.35 0 0 0-2.222.01m16.166-.159c-.111.179 2.247 4.654 2.453 4.654.116 0 2.413-4.487 2.413-4.715 0-.778-1.308.163-1.759 1.265-.281.688-.57 1.25-.641 1.25s-.392-.562-.714-1.25c-.567-1.21-1.397-1.78-1.752-1.204m6.714.119c-2.031 1.128-1.331 4.417.996 4.679.855.097 2.359-.341 2.353-.684-.009-.475-.357-.695-.758-.481-.656.351-1.734.268-2.125-.163-.411-.454-.393-.467 1.636-1.208 1.36-.497 1.394-.548.948-1.412-.507-.981-1.969-1.331-3.05-.731m4.485-.132c-.073.074-.133 1.154-.133 2.4v2.267h.6.6v-1.373c0-1.541.465-2.427 1.275-2.427.762 0 .925.376.925 2.14v1.66h.6.6v-1.965c0-2.68-1.222-3.719-2.859-2.432l-.512.403-.128-.403c-.123-.388-.691-.546-.968-.27m9.598.233c-.644.711-.39 1.89.506 2.353.843.436.73 1.201-.167 1.133-.759-.058-1.093.49-.543.893 1.722 1.258 3.23-1.266 1.583-2.649-.881-.739-.89-1.415-.018-1.248.546.104.895-.406.465-.679-.459-.291-1.484-.181-1.826.197m-170.321.322c-.394.475-.103.949.539.875.438-.05.551-.166.551-.563 0-.595-.691-.793-1.09-.312m-32.468.838c.075.224-1.902.981-2.084.798-.221-.22.328-1.132.79-1.311.454-.176 1.157.103 1.294.513m100.2 0c.075.224-1.902.981-2.084.798-.221-.22.328-1.132.79-1.311.454-.176 1.157.103 1.294.513m22.508-.165c.434.373.454 1.401.039 1.994-.684.976-2.489.315-2.489-.91 0-1.39 1.382-2.001 2.45-1.084m39.922.358c.657 1.44-1.052 2.795-2.206 1.75-.376-.34-.5-1.548-.207-2.009.491-.773 2.018-.609 2.413.259m28.177-.171c.078.234-1.902.966-2.094.773-.219-.218.335-1.13.793-1.308.464-.18 1.158.106 1.301.535m-170.338-.179c.927.75.215 2.631-.995 2.631-.692 0-1.416-.774-1.416-1.515 0-1.302 1.388-1.944 2.411-1.116m5.917.306c.809 1.695-1.188 3.106-2.109 1.49-.539-.946.136-2.165 1.199-2.165.472 0 .652.134.91.675m20.761-.23c.683.975.107 2.405-.969 2.405-.683 0-1.073-.367-1.231-1.156-.264-1.321 1.462-2.302 2.2-1.249m43.511-.045c.875.875.23 2.467-1 2.467-1.186 0-1.811-1.391-1.089-2.422.407-.582 1.529-.605 2.089-.045m43.65-.05c.655.734.443 2.149-.369 2.457-1.234.469-2.194-1.186-1.37-2.362.38-.542 1.296-.592 1.739-.095m22.059.136c.749 1.143-.204 2.772-1.364 2.331-.548-.208-.88-.953-.767-1.717.163-1.101 1.55-1.501 2.131-.614m11.925-.155c.459.415.49 1.717.052 2.155-.564.564-1.422.476-2.036-.207-1.158-1.29.698-3.112 1.984-1.948m-135.902 2.558c-.209.545.081.937.644.872.409-.048.524-.17.524-.561 0-.596-.961-.852-1.168-.311" fill="#fafafa"/><path d="M189.5.22C83.076 5.928 0 93.511 0 200c0 123.926 111.296 217.84 233.7 197.199 95.9-16.17 166.298-99.65 166.298-197.199C399.998 85.404 303.786-5.909 189.5.22m25.023 6.459c126.478 10.36 209.419 135.268 169.281 254.933-37.16 110.786-163.871 163.887-268.704 112.607C7.251 321.463-27.381 184.704 42.412 87.175 77.048 38.775 130.481 9.74 191.2 6.326c3.367-.189 19.725.058 23.323.353M189.7 8.22C94.346 13.315 16.952 88.054 8.709 183-2.123 307.765 106.067 408.722 230.2 389.683 337.324 373.253 409.712 268.989 388.275 162 369.595 68.765 284.847 3.135 189.7 8.22m74.5 77.603A6.67 6.67 0 0 1 267.377 89l.523 1.1v44c0 50.356.204 45.229-1.882 47.313s1.765 1.879-37.168 1.941l-34.05.054v-2.004-2.004h7.4 7.4v-33.2V113H179h-30.6v1.763 1.763l-1.074.445a8.56 8.56 0 0 0-1.9 1.153l-.826.707v-4.916-4.916l34.45.05 34.45.051.051 35.15.05 35.15h1.1 1.099v-16.6-16.6h19.8 19.8v16.6 16.6h3.41c2.657 0 3.539-.067 3.997-.303 1.282-.664 1.193 2.288 1.193-39.487V101.6h-64-64v38.01l.303 38.597c.5.965 1.205 1.193 3.694 1.193h2.217l-.057 1.95-.057 1.95-2.4-.015c-3.182-.019-4.199-.352-5.716-1.869-2.088-2.088-1.884 3.043-1.884-47.316v-44l.523-1.1c.56-1.181 1.706-2.444 2.677-2.953 1.628-.853-.818-.823 65-.784l62.8.037 1.1.523m-126.397 3.382c-.384.09-.946.442-1.25.783l-.553.618v3.497V97.6h64 64v-3.497-3.497l-.55-.613c-.329-.367-.872-.688-1.35-.799-1.001-.231-123.314-.22-124.297.011m6.047 2.794c1.663 1.836-.633 4.647-2.857 3.498-1.229-.636-1.575-2.413-.676-3.48.961-1.143 2.507-1.15 3.533-.018m6 0c1.233 1.361.176 3.801-1.646 3.801-.773 0-1.774-.563-2.091-1.174-1.304-2.523 1.833-4.727 3.737-2.627m6 0c.976 1.077.641 2.833-.67 3.511-1.635.846-3.565-.521-3.32-2.35.271-2.02 2.598-2.697 3.99-1.161m98.561-.193c1.11.594 1.192 2.219.157 3.09l-.602.507-43.3-.052-43.301-.051-.482-.561c-.667-.775-.663-1.977.008-2.648l.491-.491h43.322l43.707.206m.989 35.095v17.901l-19.75-.051-19.75-.051-.052-17.6.044-17.85c.075-.198 4.221-.25 19.802-.25H255.4v17.901m-35.6-.001v13.9h15.9 15.9v-13.9V113h-15.9-15.9v13.9m-31.576-7.973a7.19 7.19 0 0 1 3.142 2.96l.534 1.013v40 40l-.44.823c-.997 1.863-2.275 2.884-4.239 3.387-1.947.499-37.137.338-38.46-.175-1.346-.523-2.634-1.744-3.348-3.173l-.613-1.226v-39.532c0-44.399-.141-40.537 1.544-42.411.949-1.055 1.618-1.489 2.956-1.915 1.608-.513 37.778-.281 38.924.249m-38.017 3.534c-1.31.451-1.607 1.223-1.607 4.169v2.57h19.8 19.8v-2.57c0-2.946-.297-3.718-1.607-4.169-.995-.343-35.391-.343-36.386 0m21.007 3.256c.641.772.036.983-2.814.983-2.262 0-2.688-.05-2.867-.333-.48-.762.127-.967 2.867-.967 2.084 0 2.599.058 2.814.317M148.6 162v29h1.6 1.6v-10.9-10.9h16.6H185v10.9V191h1.6 1.6v-29-29h-19.8-19.8v29m36.3-9.3v14.2l-16.55.051-16.55.051V152.7v-14.302l16.55.051 16.55.051v14.2m-29.3 0V163h12.7H181v-10.3-10.3h-12.7-12.7v10.3m64.2 12v14.7h15.9 15.9v-14.7V150h-15.9-15.9v14.7m-64.2 17v8.7h12.7H181v-8.7-8.7h-12.7-12.7v8.7m-7 16.51c0 3.773.139 4.341 1.193 4.887.904.467 36.328.457 37.233-.01.997-.516 1.174-1.266 1.174-4.981V194.8h-19.8-19.8v3.41m21.223-1.373c2.618 1.471 1.578 5.463-1.423 5.463-2.181 0-3.571-2.194-2.626-4.147.778-1.606 2.523-2.174 4.049-1.316m57.364 26.486c2.864.705 6.763 3.485 7.111 5.069.223 1.015-.845 2.963-1.933 3.526l-.604.312-1.43-1.38c-5.539-5.344-12.531-2.359-12.531 5.35 0 4.466 1.241 6.178 7.431 10.257 7.354 4.845 9.459 8.04 9.712 14.743.443 11.686-8.343 18.554-18.043 14.103-5.693-2.612-7.875-7.301-4.355-9.357.803-.469.959-.383 2.341 1.292 6.301 7.64 15.144 4.194 14.447-5.629-.307-4.328-1.434-5.757-8.061-10.228-7.21-4.864-9.128-7.931-9.12-14.581.014-9.811 6.458-15.588 15.035-13.477m-117.227.317c.271.271.336 3.9.077 4.307-.119.187-1.821.26-6.947.3l-6.79.053-.052 9.15-.052 9.15h5.536c6.693 0 6.268-.169 6.268 2.493 0 2.794.466 2.588-6.134 2.707l-5.566.1-.052 9.65-.052 9.65h6.788c8.011 0 7.416-.187 7.416 2.327 0 2.748 1.12 2.473-10.067 2.473-7.241 0-9.713-.06-9.893-.24-.445-.445-.337-51.884.11-52.144.535-.312 19.097-.289 19.41.024m90.152.044c.369.269.393.653.488 7.85l.1 7.566 2.6.052c3.224.064 3.3.12 3.3 2.426 0 2.393-.039 2.422-3.311 2.422H200.6l.003 11.55c.005 16.084-.01 16.029 4.432 16.212 2.524.104 2.565.138 2.565 2.142 0 2.229-.362 2.416-4.344 2.244-4.655-.201-6.346-1.674-7.404-6.448-.256-1.154-.325-3.536-.395-13.55l-.085-12.15h-1.348c-1.979 0-2.124-.16-2.124-2.353 0-2.301.114-2.447 1.913-2.447 1.727 0 1.541.681 1.895-6.933.353-7.572.409-8.156.818-8.565s3.036-.42 3.586-.018m102.267-.101c.485.307.597 1.939.609 8.867l.012 6.75h2.676c3.284 0 3.224-.046 3.224 2.447 0 2.36.01 2.353-3.346 2.353h-2.569l.058 12.25.057 12.25.5 1.182c.733 1.733 1.181 1.988 3.655 2.083 2.56.099 2.545.087 2.545 2.155 0 2.32-.088 2.373-3.757 2.225-4.138-.166-5.605-.896-6.836-3.403-1.25-2.546-1.271-2.796-1.354-16.392l-.075-12.35H296.3c-1.893 0-2.1-.237-2.1-2.4 0-2.141.218-2.4 2.018-2.4 1.714 0 1.5.834 1.875-7.3.354-7.667.39-8.012.865-8.288.424-.248 3.041-.27 3.421-.029m-148.854 15.988c3.702 1.988 5.517 6.84 5.557 14.856.025 4.866.86 4.373-7.413 4.373H145l.002 1.55c.007 7.177 2.252 11.841 5.698 11.841 2.372 0 3.626-1.576 4.274-5.373l.328-1.918 1.651-.058c2.035-.072 2.153.095 1.972 2.771-.39 5.777-3.25 8.687-8.536 8.687-6.542 0-9.744-4.544-10.606-15.05-.869-10.599 1.613-19.301 6.168-21.625 2.119-1.081 5.614-1.106 7.574-.054m27.277-.24c1.928.864 3.205 2.952 4.022 6.58.533 2.368.86 29.206.363 29.805-.389.468-4.31.402-4.566-.077-.116-.217-.227-5.701-.278-13.75-.089-14.103-.154-15.143-1.053-16.924-1.939-3.841-5.986-1.693-7.603 4.035-.333 1.177-.378 2.488-.477 13.9l-.272 12.85c-.267.412-4.212.342-4.564-.081-.292-.352-.542-32.535-.27-34.819.19-1.597 1.471-2.272 2.388-1.259.296.328 1.071 4.656 1.103 6.159.011.513.378.226.513-.4 1.066-4.955 6.386-7.949 10.694-6.019m73.966.15c5.834 2.97 8.458 16.767 5.442 28.619-2.327 9.142-10.251 11.32-13.829 3.8l-.761-1.6-.06 9.229c-.071 10.975.161 10.071-2.586 10.071-2.769 0-2.474 3.018-2.474-25.291 0-26.57-.07-25.109 1.202-25.109.734 0 1.139.418 1.368 1.41.125.543.93 6.146.93 6.475 0 .414.341-.215.588-1.085 1.609-5.664 6.148-8.571 10.18-6.519m26.932-.086c4.813 1.819 7.363 10.362 6.509 21.805-.825 11.061-3.611 15.1-10.413 15.1-7.656 0-10.484-5.04-10.492-18.7-.007-11.856 2.078-16.969 7.546-18.503 1.603-.449 5.297-.289 6.85.298M119.834 240c.188.396 1.301 6.475 2.562 14l2.368 13.754c.087.284 1.019-4.681 2.496-13.3 1.374-8.018 2.499-14.046 2.698-14.454l.342-.7 1.782-.058c2.037-.067 2.187.016 2.168 1.2-.024 1.448-6.43 34.186-6.82 34.855l-.352.603H124.7h-2.378l-.348-.6c-.413-.713-6.794-33.261-6.805-34.714-.011-1.399.004-1.407 2.297-1.343l2.034.057.334.7m28.866 3.283c-2.01.898-3.334 4.46-3.63 9.767l-.131 2.35h4.93 4.931l-.001-.55c-.01-8.24-2.59-13.133-6.099-11.567m101.149.006c-5.558 2.497-5.715 25.956-.191 28.578 3.266 1.55 5.515-2.14 6.152-10.095.923-11.525-1.909-20.303-5.961-18.483m26.451-.002c-2.803 1.029-3.867 5.711-3.637 16.013.211 9.468 1.295 12.497 4.593 12.838 4.289.443 6.135-5.157 5.65-17.138-.392-9.701-2.398-13.257-6.606-11.713m-100.946 65.776l.055 3.963-.655-.063-.654-.063-.055-3.694c-.062-4.198-.052-4.256.704-4.169l.551.063.054 3.963m49.805-2.402c.056 1.515.071 1.556.5 1.4 2.357-.859 4.306 1.366 3.214 3.668-.524 1.105-2.198 1.647-3.286 1.064-.267-.143-.387-.143-.387 0 0 .114-.315.207-.7.207h-.7v-3.867c0-4.119.012-4.183.793-4.092.489.057.509.116.566 1.62m31.595 2.402l.055 3.963-.655-.063-.654-.063-.055-3.694c-.062-4.198-.052-4.256.704-4.169l.551.063.054 3.963m8.004-2.332l.058 1.631.794-.312c2.675-1.051 4.534 2.966 2.147 4.638-.533.373-2.175.414-2.525.064-.198-.198-.282-.195-.412.016-.093.15-.414.235-.742.198l-.578-.066-.055-3.694c-.062-4.198-.052-4.256.704-4.169.546.062.552.079.609 1.694M277.1 309v3.9l-.65.063-.65.062v-3.879c0-4.133.012-4.196.793-4.105l.507.059v3.9m-156.825-3.398c.47.452-.068 1.217-.763 1.087-1.558-.292-2.214.95-.882 1.67 3.179 1.721 2.72 4.644-.73 4.637-1.486-.003-1.767-.159-1.586-.88.131-.523.177-.541 1.073-.418 2.15.296 2.444-1.293.439-2.371-2.091-1.125-2.044-3.408.082-3.989.506-.137 2.14.044 2.367.264m115.19-.252c.161.273-.247 1.05-.552 1.05-.352 0-.713.601-.713 1.187 0 .307.128.413.5.413.422 0 .5.093.5.6s-.078.6-.5.6c-.498 0-.5.006-.5 1.913v1.912l-.65-.062-.65-.063-.058-1.797c-.043-1.319-.136-1.84-.35-1.96-.371-.207-.387-1.143-.019-1.143.173 0 .32-.342.401-.939.196-1.426 2.041-2.645 2.591-1.711m18.291.227c1.095.585.266 1.33-1.396 1.254-1.971-.091-2.752.473-2.908 2.102-.186 1.936 1.296 3.078 3.298 2.541.915-.245.624-1.474-.35-1.474-.72 0-.8-.05-.8-.5 0-.486.04-.5 1.4-.5h1.4v1.678 1.679l-.804.321c-3.456 1.383-6.551-1.25-5.58-4.747.594-2.139 3.735-3.428 5.74-2.354m-158.793.473l-.063.65-1.65.058-1.65.058v.783.783l1.45.059 1.45.059.063.65.062.65h-1.512H91.6v.9.9h1.813 1.812l-.062.65-.063.65-2.45.056-2.45.056v-3.806-3.806h2.413 2.412l-.062.65m49.108.7c.817 2.066.798 2.063 1.523.265l.651-1.615h.877c1.077 0 1.108-.253-.322 2.6-1.102 2.199-1.2 2.501-1.2 3.709v1.315l-.75-.062-.75-.062.068-1.048c.061-.936-.062-1.324-1.15-3.645-1.45-3.092-1.414-2.807-.35-2.807h.869l.534 1.35m24.164 1.368c.073 3.055.278 3.482 1.665 3.482s1.592-.427 1.665-3.482l.066-2.718h.684.685v2.65c-.001 3.77-.735 4.951-3.08 4.949-2.415-.002-3.118-1.095-3.119-4.849l-.001-2.75h.685.684l.066 2.718m13.249-2.455c.424.311.359.904-.134 1.215-.693.436-1.473-.547-.942-1.188.299-.36.609-.368 1.076-.027m29.916 1.245v1.507l1.85-.057 1.85-.058.059-1.45.059-1.45h.691.691v3.8 3.8h-.692-.691l-.059-1.55-.058-1.55-1.85-.058-1.85-.057v1.607V313h-.7-.7v-3.8-3.8h.7.7v1.508m74.363-.858l-.063.65-1.55.058-1.55.059v.782.783l1.35.059 1.35.059.063.65.062.65h-1.412-1.413v.9.9h1.7 1.7v.7.7h-2.5-2.5v-3.8-3.8h2.413 2.412l-.062.65m-171.203.9c.056.957.103 1.05.539 1.05.573 0 .771.264.6.802-.079.251-.302.398-.605.398-.467 0-.48.048-.536 1.85l-.058 1.85-.65.063-.65.062v-1.912c0-1.78-.028-1.913-.4-1.913-.311 0-.4-.133-.4-.6s.089-.6.4-.6c.352 0 .4-.133.4-1.113v-1.112l.65.062c.634.061.652.089.71 1.113m20.8 0c.056.964.101 1.05.55 1.05.411 0 .49.097.49.6s-.079.6-.492.6c-.484 0-.494.033-.55 1.85l-.058 1.85-.65.063-.65.062v-1.912c0-1.78-.028-1.913-.4-1.913-.311 0-.4-.133-.4-.6s.089-.6.4-.6c.352 0 .4-.133.4-1.113v-1.112l.65.062c.634.061.652.089.71 1.113m43-.012c.056.961.1 1.042.6 1.1.793.091.785 1.034-.01 1.125l-.55.064v1.886V313h-.7-.7v-1.9c0-1.767-.028-1.9-.4-1.9-.311 0-.4-.133-.4-.6s.089-.6.4-.6c.352 0 .4-.133.4-1.113v-1.112l.65.062c.633.061.652.091.71 1.101m21.6.012c.056.964.101 1.05.55 1.05.411 0 .49.097.49.6s-.079.6-.492.6c-.484 0-.494.033-.55 1.85l-.058 1.85-.65.063-.65.062v-1.912c0-1.78-.028-1.913-.4-1.913-.311 0-.4-.133-.4-.6s.089-.6.4-.6c.352 0 .4-.133.4-1.113v-1.112l.65.062c.634.061.652.089.71 1.113m105.4-.012c.056.961.1 1.042.6 1.1.793.091.785 1.034-.01 1.125l-.55.064v1.886V313h-.7-.7v-1.877c0-1.708-.036-1.886-.4-1.981-.27-.071-.4-.273-.4-.623 0-.386.103-.519.4-.519.352 0 .4-.133.4-1.113v-1.112l.65.062c.633.061.652.091.71 1.101m-200.194 1.364c.694.584 1.161 1.667.777 1.8-1.763.61-2.833 1.068-2.889 1.237-.14.42 1.066.719 1.853.459.811-.268 1.177-.085 1.059.531-.202 1.059-3.125.953-4.051-.148-1.853-2.202 1.082-5.704 3.251-3.879m6.071.031c.308.28.363.657.363 2.511v2.181l-.65-.062-.65-.063-.1-1.8-.1-1.8-.622-.061c-.828-.08-1.278.818-1.278 2.554v1.232l-.65-.062-.65-.063v-2.4-2.4l.65-.063c.464-.044.65.021.65.229 0 .237.138.219.75-.098.835-.432 1.695-.37 2.287.165m15.016.228c2.019 2.019-.361 5.572-2.844 4.244-.326-.175-.379-.079-.502.911-.138 1.098-.144 1.106-.773 1.045-.72-.069-.658.396-.576-4.361l.042-2.4h.583c.321 0 .618.102.66.228.052.157.258.125.666-.103.859-.48 2.011-.297 2.744.436m5.69.116c.751.819.896 2.082.358 3.121-1.18 2.282-4.701 1.358-4.701-1.233 0-2.528 2.686-3.695 4.343-1.888m20.136-.574c1.521.722 1.866 2.992.641 4.217-1.183 1.183-3.28.911-4.021-.522-1.178-2.278 1.105-4.774 3.38-3.695m35.069.159c.234.235.393.218 1.057-.11 1.821-.901 2.555-.162 2.635 2.653l.06 2.095-.65.063-.65.062v-.984c0-2.268-.189-2.869-.879-2.802-.835.082-1.32 1.046-1.321 2.624v1.162l-.65-.062-.65-.063-.058-1.85-.057-1.85h-.562c-.929 0-1.307.628-1.392 2.318l-.075 1.482h-.684-.684l.056-2.45.056-2.45.65-.063c.464-.044.65.021.65.229 0 .237.139.219.75-.099.821-.428 1.919-.384 2.398.095m7.851-.163c.365.189.624.226.701.1.068-.109.388-.199.712-.199H197v2.5 2.5h-.606c-.352 0-.654-.125-.721-.297-.1-.263-.163-.263-.538 0-.738.517-2.08.383-2.736-.273-1.955-1.956.211-5.566 2.6-4.331m10.059-.082c.494.225 1.052 1.012 1.173 1.652.055.296-.223.475-1.418.91-1.679.611-1.889.858-1.032 1.213.467.194.753.195 1.326.006.811-.268 1.177-.085 1.059.531-.202 1.059-3.125.953-4.051-.148-1.698-2.018.58-5.24 2.943-4.164m34.361.093c1.224.633 1.691 2.16 1.097 3.583-.604 1.444-2.858 1.805-4.02.643-2.102-2.102.304-5.581 2.923-4.226m21.847-.037c1.695.708 1.978 3.181.505 4.42-1.112.936-3.222.562-3.868-.686-1.177-2.276 1.018-4.714 3.363-3.734m11.418.034c.414.216.625.24.722.083.076-.122.398-.192.716-.156l.578.066v2.4 2.4l-.65.063c-.487.047-.65-.017-.65-.255 0-.288-.056-.289-.59-.013-1.932.999-3.553-.17-3.365-2.429.16-1.931 1.703-2.96 3.239-2.159m23.099-.016c.568.294 1.364 1.628 1.118 1.874-.073.073-.774.368-1.557.656-1.622.594-1.808.821-.963 1.171.467.194.753.195 1.326.006.811-.268 1.177-.085 1.059.531-.183.956-2.977.951-3.934-.006-1.968-1.968.496-5.501 2.951-4.232m6.113.159c.491.426.521.564.561 2.55l.043 2.1-.578.066c-.791.09-.915-.197-.919-2.116L301 309.2h-.569c-.922 0-1.278.593-1.388 2.31l-.097 1.511-.623-.06-.623-.061v-2.4-2.4l.65-.063c.464-.044.65.021.65.229 0 .239.133.223.742-.088.973-.495 1.521-.477 2.154.072m7.264-.321c.677.181.521.95-.21 1.034s-.693.377.15 1.15c1.497 1.371.446 3.496-1.424 2.879-1.07-.353-.933-1.323.174-1.226.982.086.969-.225-.05-1.166-1.506-1.39-.588-3.193 1.36-2.671M97.777 309.25l.579 1.25.555-1.25c.522-1.177 1.889-1.938 1.889-1.052 0 .304-2.274 4.802-2.428 4.802-.121 0-2.772-4.695-2.772-4.911 0-.049.36-.089.799-.089.786 0 .81.022 1.378 1.25m57.823.41c0 1.821.155 2.14 1.043 2.14.846 0 1.355-.961 1.356-2.563l.001-1.262.65.062.65.063v2.4 2.4l-.551.063c-.358.042-.593-.045-.67-.247-.106-.276-.167-.277-.544-.013-.703.492-2.264.386-2.844-.194-.456-.456-.491-.633-.491-2.5V308h.7.7v1.66m6-1.26v.4l.4-.4c.443-.443 1.609-.553 1.586-.15-.03.537-.331 1.018-.666 1.068-.952.139-1.317.898-1.319 2.745l-.001.962-.65-.062-.65-.063-.057-2.187c-.068-2.593-.035-2.713.751-2.713.473 0 .606.088.606.4m20 2.113v2.512l-.65-.062-.65-.063-.056-2.45-.056-2.45h.706.706v2.513m37.6-.613l.1 1.8.627.061c1 .097 1.473-.67 1.473-2.388V308h.7.7v2.5 2.5h-.6c-.4 0-.6-.1-.6-.3 0-.373-.189-.372-.688.006-.547.414-2.167.38-2.678-.056-.469-.401-.488-.522-.457-2.913l.023-1.762.65.062.65.063.1 1.8m23.6-1.465v.435l.463-.435c.573-.539 1.538-.592 1.534-.085-.004.493-.307.913-.699.971-.78.114-1.08.68-1.14 2.152-.057 1.409-.065 1.428-.636 1.493-.799.091-.83-.019-.76-2.646l.062-2.32h.588c.47 0 .588.087.588.435m45.761.758c.664 1.47.641 1.47 1.223.007.456-1.148 1.816-1.877 1.816-.973 0 .323-2.271 4.771-2.437 4.772s-2.563-4.46-2.563-4.774c0-.891 1.443-.179 1.961.968m-150.275-.679c.635.635.118 1.431-.783 1.205-.603-.152-.701-.984-.153-1.303.474-.276.571-.266.936.098m-35.155.852c-.68.751-.42.979.689.604.875-.295.883-.305.584-.665-.34-.41-.87-.385-1.273.061m20.469-.107c-.652.327-.839 1.872-.275 2.284.52.381 1.42.312 1.875-.143 1.053-1.053-.261-2.811-1.6-2.141m5.8.141c-.511.511-.529 1.621-.034 2.069.796.721 1.834.135 1.834-1.035 0-.672-.585-1.434-1.1-1.434-.165 0-.48.18-.7.4m20.8 0c-.758.758-.293 2.4.68 2.4 1.073 0 1.577-1.857.675-2.489-.587-.411-.874-.392-1.355.089m43.389-.031c-.918.743-.355 2.431.811 2.431.724 0 1.2-.577 1.2-1.454 0-1.186-1.096-1.718-2.011-.977m9.742-.003c-.68.751-.42.979.689.604.875-.295.883-.305.584-.665-.34-.41-.87-.385-1.273.061m22.308-.054c-.375.266-.449.477-.4 1.15.116 1.574 1.92 1.781 2.447.281.401-1.14-1.036-2.145-2.047-1.431m12.1-.09c-.763.444-.81 1.954-.076 2.421 1.194.759 2.369-1.211 1.337-2.243-.447-.447-.73-.487-1.261-.178m21.776.092c-.688.687-.625 1.906.117 2.303.628.336 1.301.064 1.54-.621.46-1.32-.771-2.569-1.657-1.682m5.685.086c-.452.452-.525 1.356-.15 1.859.421.565 1.441.65 1.929.162.846-.846.274-2.421-.879-2.421a1.49 1.49 0 0 0-.9.4m6 0c-.826.826-.236 2.4.9 2.4 1.375 0 1.796-1.921.563-2.57-.627-.33-1.007-.286-1.463.17m22.731-.034c-.68.751-.42.979.689.604.875-.295.883-.305.584-.665-.34-.41-.87-.385-1.273.061m-155.718 2.241c.545.291.486.956-.107 1.227-.831.378-1.506-.554-.866-1.194.294-.294.474-.3.973-.033" fill="#63747c"/><path d="M132.098 134.3l.052 21.634v-43.4c-.028-11.899-.052-2.104-.052 21.766m135.8 0l.052 21.634v-43.4c-.028-11.899-.052-2.104-.052 21.766M135.892 94.55l.008 3.15H200h64.1l.008-3.05.008-3.05-.063 3-.063 3H200h-63.99l-.063-3.1-.063-3.1.008 3.15m.001 7.1c-.053.137-.072 17.17-.044 37.85l.052 37.6.05-37.75.049-37.75h63.999 64l.051 37.75.052 37.75-.001-37.8-.001-37.8-64.056-.05c-51.14-.04-64.076 0-64.151.2m43.106 7.5l34.4.051.051 35.1.052 35.099-.001-35.15-.001-35.15-34.45-.001-34.45-.001 34.399.052m36.893.1c-.052.138-.072 8.17-.044 17.85l.052 17.6 19.7.001 19.7.002-19.65-.053-19.65-.052V126.9v-17.698l19.75-.052 19.75-.052-19.756-.049c-15.657-.039-19.776.003-19.852.201m-6.194 36.95l.052 16.65v-33.3c-.029-9.157-.052-1.665-.052 16.65m-41.348-7.651l16.45.053V152.7v14.098l-16.55.053-16.55.053 16.6-.002 16.6-.002v-14.2-14.2l-16.5-.002-16.5-.001 16.45.052m-6.386 3.801h12.8c3.485-.031.576-.056-6.464-.056l-6.336.056m53.931 20.45l.055 8.35v-16.7c-.03-4.592-.055-.835-.055 8.35m-31.002 17.3l.057 5.564v-11c-.031-3.06-.057-.614-.057 5.436m-45.736 3.248c.581.04 1.481.04 2-.001s.043-.074-1.057-.074-1.524.034-.943.075m72.409.002h33.6c9.204-.029 1.614-.052-16.866-.052l-16.734.052m-43.516 18.988c.193.05.508.05.7 0s.035-.092-.35-.092-.542.042-.35.092m-8.5 1.212h17.7c4.868-.03.885-.054-8.85-.054l-8.85.054m-.2 3.8h18.1c4.978-.03.905-.054-9.05-.054l-9.05.054m41.14 24.15c0 3.85.027 5.397.06 3.437a251.28 251.28 0 0 0 0-7c-.033-1.89-.06-.287-.06 3.563m102.4.6c0 3.74.027 5.242.06 3.337s.033-4.964 0-6.8-.06-.277-.06 3.463m-72.49-1.2c.373.385.723.7.778.7s-.205-.315-.578-.7-.723-.7-.778-.7.205.315.578.7m-18.346 6.1c0 .495.039.697.087.45a2.83 2.83 0 0 0 0-.9c-.048-.247-.087-.045-.087.45m96.806 4.6c0 .605.037.853.083.55a4.4 4.4 0 0 0 0-1.1c-.046-.302-.083-.055-.083.55m-142.764 16.2l.054 8.55v-17.1c-.03-4.702-.054-.855-.054 8.55m74.401 6.4l.053 11.65v-23.3c-.029-6.407-.053-1.165-.053 11.65m-47.347-20.255a6.42 6.42 0 0 0 1.3 0c.358-.045.065-.081-.65-.081s-1.007.036-.65.081m9.108.003c.747.039 1.917.039 2.6 0s.072-.071-1.358-.07-1.989.032-1.242.07m93.088-.004c.355.045.985.045 1.4.002s.124-.079-.646-.08-1.11.034-.754.078m9.204.004c.688.039 1.813.039 2.5 0s.125-.071-1.25-.071-1.937.032-1.25.071m-1.657 11.252l.057 5.55v-11.1c-.031-3.053-.057-.555-.057 5.55m-102.4-.5l.057 5.136v-10.4c-.031-2.825-.057-.456-.057 5.264m-101.331-7.95a155.99 155.99 0 0 0 5.6-.001c1.506-.033.218-.061-2.862-.061s-4.312.028-2.738.062m-2.831 5c-.052.082 1.541.127 3.538.099 6.779-.096 7.446-.165 1.993-.207-2.991-.023-5.48.026-5.531.108m186.519 2.35c.003.44.044.596.091.348s.046-.609-.004-.8-.089.012-.087.452m-21.6 1.4c.003.44.044.596.091.348s.046-.609-.004-.8-.089.012-.087.452m-121.573 2.1c0 1.375.032 1.938.071 1.25s.039-1.812 0-2.5-.071-.125-.071 1.25m148.599 0c0 1.265.032 1.782.072 1.15a22.62 22.62 0 0 0 0-2.3c-.04-.632-.072-.115-.072 1.15m-27.022 2c0 .495.039.698.087.45a2.83 2.83 0 0 0 0-.9c-.048-.247-.087-.045-.087.45m21.596 1.3c.003.44.044.596.091.348s.046-.609-.004-.8-.089.012-.087.452m-87.4 5c.003.44.044.596.091.348s.046-.609-.004-.8-.089.012-.087.452m16.95 6.163c0 .034.293.327.65.65l.65.587-.587-.65c-.548-.606-.713-.742-.713-.587m-4.934 1.837c.001.77.037 1.06.08.646s.043-1.045-.002-1.4-.079-.016-.078.754m23.323-.55l-.689.75.75-.689c.413-.379.75-.717.75-.75 0-.153-.169-.009-.811.689m-27.631 2.798a24.62 24.62 0 0 0 2.4 0c.628-.04.062-.072-1.258-.072s-1.834.033-1.142.072m102.4 0a24.62 24.62 0 0 0 2.4 0c.628-.04.062-.072-1.258-.072s-1.834.033-1.142.072m-63.508 13.399a14.69 14.69 0 0 0 1.9 0c.522-.041.095-.075-.95-.075s-1.472.034-.95.075M224 305.077c0 .043.265.117.589.164s.544.013.489-.077c-.099-.161-1.078-.239-1.078-.087m52.546.067c.44.081.446.132.506 3.869l.061 3.787-.006-3.85-.007-3.85-.5-.019c-.426-.017-.434-.007-.054.063M135.26 307c0 .605.037.853.083.55a4.4 4.4 0 0 0 0-1.1c-.046-.303-.083-.055-.083.55m64.6 0c0 .605.037.853.083.55a4.4 4.4 0 0 0 0-1.1c-.046-.303-.083-.055-.083.55m-107.51-.254a11.22 11.22 0 0 0 1.7 0c.467-.042.085-.076-.85-.076s-1.317.034-.85.076m190.13.135c-.06.154-.079.582-.044.95l.064.669 1.3.014 1.3.013-1.25-.072-1.25-.073v-.783-.782l1.55-.068 1.55-.069-1.556-.04c-1.18-.03-1.583.028-1.664.241M263.476 309c0 1.265.032 1.783.072 1.15a22.62 22.62 0 0 0 0-2.3c-.04-.632-.072-.115-.072 1.15m-156.614.3c.001.66.038.906.083.546a5.34 5.34 0 0 0-.002-1.2c-.046-.3-.082-.006-.081.654m52.398-.1c0 .605.037.853.083.55a4.4 4.4 0 0 0 0-1.1c-.046-.302-.083-.055-.083.55m1.016 1.3c.001 1.32.033 1.834.072 1.142a24.62 24.62 0 0 0 0-2.4c-.04-.628-.072-.062-.072 1.258m22.384-1.3c0 .605.037.853.083.55a4.4 4.4 0 0 0 0-1.1c-.046-.302-.083-.055-.083.55m36.41.6c0 .935.034 1.318.076.85a11.22 11.22 0 0 0 0-1.7c-.042-.467-.076-.085-.076.85m55.603.3c.001 1.1.034 1.524.075.943s.04-1.481-.001-2-.074-.043-.074 1.057m23.002.2c0 1.21.033 1.679.073 1.043s.039-1.627-.001-2.2-.073-.053-.072 1.157m-205.329-1.756c.355.045.985.045 1.4.002s.124-.079-.646-.08-1.11.034-.754.078M135.272 311c0 1.045.034 1.473.075.95a14.69 14.69 0 0 0 0-1.9c-.041-.522-.075-.095-.075.95m64.6 0c0 1.045.034 1.473.075.95a14.69 14.69 0 0 0 0-1.9c-.041-.522-.075-.095-.075.95m-89.602.2c0 .935.034 1.318.076.85a11.22 11.22 0 0 0 0-1.7c-.042-.468-.076-.085-.076.85m75.8 0c0 .935.034 1.318.076.85a11.22 11.22 0 0 0 0-1.7c-.042-.468-.076-.085-.076.85m114.999-.1c0 .88.035 1.215.078.745a10.04 10.04 0 0 0-.002-1.6c-.043-.41-.077-.025-.076.855m-18.612-.4c.002.55.041.751.087.447s.044-.754-.003-1-.085.003-.084.553m20.009.8c.001.77.037 1.06.08.646s.043-1.045-.002-1.4-.079-.016-.078.754m-111.609 0c.002.55.041.751.087.447s.044-.754-.003-1-.085.003-.084.553m52.005.2c.001.66.038.906.083.546a5.34 5.34 0 0 0-.002-1.2c-.046-.3-.082-.006-.081.654m-120.016 1.5c0 .385.042.543.092.35s.05-.507 0-.7-.092-.035-.092.35m-1.389.5c.002.55.041.751.087.447s.044-.754-.003-1-.085.003-.084.553" fill="#94a4ab"/><path d="M163.65 112.95h30.7c8.443-.029 1.535-.053-15.35-.053l-15.35.053m64.115 0h16c4.364-.03.735-.055-8.065-.055l-7.935.055m-60.615 13.798c.688.039 1.813.039 2.5 0s.125-.071-1.25-.071-1.937.032-1.25.071m60.615 14.202h16c4.364-.03.735-.055-8.065-.055l-7.935.055m-65.801 22.2h12.8c3.485-.031.576-.056-6.464-.056l-6.336.056m-21.721 16.396l1.742.069.07 1.842.07 1.843-.012-1.9-.013-1.9-1.8-.011-1.8-.011 1.743.068m58.207.004a292.98 292.98 0 0 0 7.5 0c2.063-.033.375-.059-3.75-.059s-5.812.026-3.75.059m15.704-.005a5.34 5.34 0 0 0 1.2-.002c.3-.046.006-.082-.654-.081s-.906.038-.546.083m13.611.005h16c4.364-.03.735-.055-8.065-.055l-7.935.055m29.194-.001c.913.037 2.353.037 3.2-.001s.101-.067-1.659-.067-2.453.031-1.541.068m-94.995 11.001h12.8c3.485-.031.576-.056-6.464-.056l-6.336.056m-66.3 33h9.4c2.55-.032.406-.058-4.764-.058l-4.636.058m101.986-.004a8.74 8.74 0 0 0 1.5 0c.413-.043.075-.079-.75-.079s-1.162.036-.75.079m102.296-.002c.355.045.985.045 1.4.002s.124-.079-.646-.08-1.11.034-.754.078M96.092 237.6l.058 4.25v-8.5c-.032-2.337-.058-.425-.058 4.25m110.37 3.9c.001.66.038.906.083.546a5.34 5.34 0 0 0-.002-1.2c-.046-.3-.082-.006-.081.654m-14.602.1c0 .605.037.853.083.55a4.4 4.4 0 0 0 0-1.1c-.046-.302-.083-.055-.083.55m3.633 13.2l.057 5.25v-10.5c-.031-2.887-.057-.525-.057 5.25m-99.396 7.15l.003 9.35 6.7.004 6.7.004-6.648-.057-6.648-.056-.055-9.298-.055-9.297.003 9.35m126.353 14.588c.193.05.507.05.7 0s.035-.092-.35-.092-.543.042-.35.092M174.079 309c0 1.595.032 2.248.07 1.45a37.9 37.9 0 0 0 0-2.9c-.038-.798-.07-.145-.07 1.45m58.46.14c.131.093.274.707.317 1.365l.079 1.195-.017-1.284c-.014-.962-.093-1.305-.318-1.365-.21-.057-.228-.031-.061.089m-73.289 1.76c.003.44.044.596.091.348s.046-.609-.004-.8-.089.012-.087.452m23.4 0c.003.44.044.596.091.348s.046-.609-.004-.8-.089.012-.087.452m-75.796.3c0 .495.039.698.087.45a2.83 2.83 0 0 0 0-.9c-.048-.247-.087-.045-.087.45" fill="#abb4bc"/><path d="M169.05 85.35h61.9c17.023-.028 3.095-.051-30.95-.051l-30.95.051m20.384 10h42.8c11.806-.029 2.206-.052-21.334-.052l-21.466.052m30.261 31.55l.055 7.165v-14.2c-.03-3.941-.055-.775-.055 7.035m-71.423-12.1c0 1.045.034 1.472.075.95a14.69 14.69 0 0 0 0-1.9c-.041-.522-.075-.095-.075.95m103.423 12.1l.055 6.935v-14c-.03-3.814-.055-.635-.055 7.065m-92.245-8.35h17.9c4.923-.03.895-.054-8.95-.054l-8.95.054m-10.973 8.25c0 1.375.032 1.938.071 1.25s.039-1.812 0-2.5-.071-.125-.071 1.25m39.799.1c.001 1.32.033 1.834.072 1.142a24.62 24.62 0 0 0 0-2.4c-.04-.628-.072-.062-.072 1.258m-21.218-1.352c.747.039 1.917.039 2.6 0s.072-.071-1.358-.07-1.989.032-1.242.07m-18.565 7.501c-.053.138-.072 13.256-.044 29.151l.052 28.9.05-29.05.049-29.05h19.799 19.8l.051 28.95.052 28.95-.001-29-.001-29-19.856-.051c-15.779-.04-19.875.001-19.951.2m32.6 19.651l.057 5.236v-10.6c-.031-2.88-.057-.466-.057 5.364m38.599-2.651c-.052.138-.072 6.866-.042 14.951l.053 14.7.048-14.85.049-14.85h15.899 15.898l.054 14.7.053 14.7-.002-14.75-.002-14.75-15.956-.051c-12.659-.041-15.975.001-16.052.2m-38.6 31.751l.058 4.45v-8.9c-.032-2.447-.058-.445-.058 4.45m-32.603 13.057c-.055.143-.072 1.695-.039 3.451l.061 3.192.044-3.35.045-3.35h19.795 19.795l.063 3.2.062 3.2-.007-3.25-.008-3.25-19.856-.051c-16.105-.041-19.875-.002-19.955.208m47.557 31.743c0 .385.042.543.092.35s.05-.507 0-.7-.092-.035-.092.35m-.4 8.2c0 .385.042.543.092.35s.05-.507 0-.7-.092-.035-.092.35m81.004 4.138c.193.05.507.05.7 0s.035-.092-.35-.092-.543.042-.35.092m1.6 0c.193.05.507.05.7 0s.035-.092-.35-.092-.542.042-.35.092m18.05.262l-1.4.129 1.338.036c.736.019 1.394-.055 1.462-.165s.096-.184.062-.165-.692.094-1.462.165m-179.85.147a14.69 14.69 0 0 0 1.9 0c.523-.041.095-.075-.95-.075s-1.472.034-.95.075m14.9-.001a11.22 11.22 0 0 0 1.7 0c.468-.042.085-.076-.85-.076s-1.317.034-.85.076m35.7-.008c.193.05.508.05.7 0s.035-.092-.35-.092-.542.042-.35.092m26.096.006c.355.045.985.045 1.4.002s.124-.079-.646-.08-1.11.034-.754.078m8.912.004c.747.039 1.917.039 2.6 0s.072-.071-1.358-.07-1.989.032-1.242.07m102.4 0c.747.039 1.917.039 2.6 0s.072-.071-1.358-.07-1.989.032-1.242.07m-10.191 2.252c0 .825.036 1.163.079.75a8.74 8.74 0 0 0 0-1.5c-.043-.412-.079-.075-.079.75m-150.38-.35l-.587.65.65-.587c.606-.548.742-.713.587-.713-.034 0-.327.293-.65.65m154.006 14.25l.057 5.564v-11c-.031-3.06-.057-.614-.057 5.436m-190.023-6.3c0 .935.034 1.318.076.85a11.22 11.22 0 0 0 0-1.7c-.042-.468-.076-.085-.076.85m63.223 14l.057 5.55v-11.1c-.031-3.053-.057-.555-.057 5.55m-12.043-9.1c.003.44.044.596.091.348s.046-.609-.004-.8-.089.012-.087.452m108.2.6c.003.44.044.596.091.348s.046-.609-.004-.8-.089.012-.087.452m5.229 2.9c0 1.595.032 2.248.07 1.45a37.9 37.9 0 0 0 0-2.9c-.038-.797-.07-.145-.07 1.45m-125.017-2.05a120.75 120.75 0 0 0 5-.001c1.341-.034.188-.062-2.562-.062s-3.847.028-2.438.063m98.012 2.05c0 1.155.033 1.628.073 1.05s.041-1.523 0-2.1-.073-.105-.073 1.05m-97.011 1.15a220 220 0 0 0 6.6 0c1.78-.034.267-.061-3.363-.06s-5.087.027-3.237.06m-3.599 1.45c0 .715.036 1.007.081.65a6.42 6.42 0 0 0 0-1.3c-.045-.357-.081-.065-.081.65m100.627 10.25c-.052.138-.071 4.03-.041 8.65l.055 8.4.047-8.562c.036-6.41.106-8.526.279-8.419.143.089.177.055.088-.088-.184-.298-.308-.292-.428.019m-135.222 3.25c0 .88.035 1.215.078.745a10.04 10.04 0 0 0-.002-1.6c-.043-.41-.077-.025-.076.855m33.131-.437c0 .034.292.327.65.65l.65.587-.587-.65c-.548-.606-.713-.742-.713-.587m81.669 33.637c0 .88.035 1.215.078.745a10.04 10.04 0 0 0-.002-1.6c-.043-.41-.077-.025-.076.855m30.424 2.3l.007 3.7.5.019c.426.017.434.007.054-.063-.438-.08-.446-.138-.506-3.719l-.061-3.637.006 3.7m25.6 0l.007 3.7h2.4 2.4l.029-.6c.027-.57.024-.573-.063-.05l-.093.55h-2.282-2.282l-.061-3.65-.061-3.65.006 3.7m-167.153-3.257c.369.069.452.24.517 1.07l.078.989-.018-1.051c-.016-.978-.052-1.052-.517-1.07-.414-.016-.425-.006-.06.062m63.8 0c.369.069.452.24.517 1.07l.078.989-.018-1.051c-.016-.978-.052-1.052-.517-1.07-.414-.016-.425-.006-.06.062m127 0c.369.069.452.24.517 1.07l.078.989-.018-1.051c-.016-.978-.052-1.052-.517-1.07-.414-.016-.425-.006-.06.062M172.876 308.2c0 1.265.032 1.783.072 1.15a22.62 22.62 0 0 0 0-2.3c-.04-.632-.072-.115-.072 1.15m43.604.8c0 1.705.031 2.403.069 1.55s.037-2.247 0-3.1-.069-.155-.069 1.55m-49.606-.4c0 1.155.033 1.628.073 1.05s.041-1.522 0-2.1-.073-.105-.073 1.05m57.002.4c0 1.265.032 1.783.072 1.15a22.62 22.62 0 0 0 0-2.3c-.04-.632-.072-.115-.072 1.15m-133.6.3c.001 1.32.033 1.834.072 1.142a24.62 24.62 0 0 0 0-2.4c-.04-.628-.072-.062-.072 1.258m119.799-.2c0 1.21.033 1.679.073 1.043s.039-1.627-.001-2.2-.073-.053-.072 1.157m-97.608-.502c.022.338.161.511.433.538.288.03.305.013.062-.06-.185-.055-.38-.298-.432-.538-.08-.367-.09-.357-.063.06m20.8 0c.022.338.161.511.433.538.288.03.305.013.062-.06-.185-.055-.38-.298-.432-.538-.08-.367-.09-.357-.063.06M154.272 310c0 1.045.034 1.473.075.95a14.69 14.69 0 0 0 0-1.9c-.041-.522-.075-.095-.075.95m26.018.55l.01 2.35.552.024c.494.022.5.015.057-.062-.49-.086-.497-.118-.563-2.375l-.066-2.288.01 2.351m17.577-1.952c.022.338.161.511.433.538.288.03.305.013.062-.06-.185-.055-.38-.298-.432-.538-.08-.367-.09-.357-.063.06m14.49-.05c.581.04 1.481.04 2-.001s.043-.074-1.057-.074-1.524.034-.943.075m9.105.952c.001.66.038.906.083.546a5.34 5.34 0 0 0-.002-1.2c-.046-.3-.082-.006-.081.654m27.784-.3c0 .385.042.543.092.35s.05-.507 0-.7-.092-.035-.092.35m-134.713-.067c-.073.074-.133.923-.133 1.887v1.753l-.55.093c-.523.087-.52.09.05.063l.6-.029.057-1.837c.057-1.828.061-1.838.6-1.92l.543-.083-.517-.03c-.284-.017-.576.03-.65.103m63.8 0c-.073.074-.133.923-.133 1.887v1.753l-.55.093c-.523.087-.52.09.05.063l.6-.029.057-1.837c.057-1.828.061-1.838.6-1.92l.543-.083-.517-.03c-.284-.017-.576.03-.65.103m73.342.16a.88.88 0 0 0-.01.55c.057.142.111.059.119-.183.014-.398.138-.448 1.266-.512l1.25-.071-1.256-.038c-.946-.029-1.284.034-1.369.254m51.963-.169c.185.055.38.298.432.538.08.367.09.357.063-.06-.022-.338-.161-.511-.433-.538-.288-.03-.305-.013-.062.06m1.695.009c-.073.074-.133.923-.133 1.887v1.753l-.55.093c-.523.087-.52.09.05.063l.6-.029.057-1.837c.057-1.828.061-1.838.6-1.92l.543-.083-.517-.03c-.284-.017-.576.03-.65.103M93 309.6l-1.5.128 1.438.036c.791.02 1.494-.054 1.562-.164s.096-.184.062-.164-.737.094-1.562.164m190.05.146a8.74 8.74 0 0 0 1.5 0c.413-.043.075-.079-.75-.079s-1.163.036-.75.079m-87.404.654c0 .385.042.543.092.35s.05-.507 0-.7-.092-.035-.092.35m29.4 0c0 .385.042.543.092.35s.05-.507 0-.7-.092-.035-.092.35m-79.609 1.137c-.035 1.184-.06 1.24-.587 1.32l-.55.083.556.03c.681.037.788-.21.692-1.594l-.074-1.076-.037 1.237m13.79.599c-.021.49-.131.656-.477.723l-.45.087.456.027c.514.03.718-.321.587-1.008-.069-.362-.095-.324-.116.171m23.423.114c.052.67.753 1.027 1.179.601.111-.111-.05-.149-.409-.097-.53.078-.604.022-.706-.533l-.114-.621.05.65m50.2 0c.043.557.129.653.602.674.482.022.49.014.062-.062-.354-.062-.521-.249-.602-.674-.107-.559-.11-.556-.062.062m-125.983.15c.026.398.146.505.585.524.481.022.489.014.063-.062-.302-.053-.527-.254-.585-.524-.08-.365-.09-.355-.063.062m156.596.1c.029.286.197.407.591.424.482.022.49.014.061-.062-.27-.047-.536-.238-.591-.424-.073-.244-.09-.227-.061.062m-38.463.087c0 .102-.247.224-.55.27l-.55.083.526.03c.289.017.637-.105.774-.27.172-.207.18-.3.024-.3-.123 0-.224.084-.224.187m-133.442.361a24.62 24.62 0 0 0 2.4 0c.628-.04.062-.072-1.258-.072s-1.834.033-1.142.072" fill="#b4bcc0"/></svg>